<?xml version="1.0" standalone="no"?>
<!DOCTYPE svg PUBLIC "-//W3C//DTD SVG 20010904//EN"
 "http://www.w3.org/TR/2001/REC-SVG-20010904/DTD/svg10.dtd">
<svg version="1.0" xmlns="http://www.w3.org/2000/svg"
 width="630.000000pt" height="630.000000pt" viewBox="0 0 630.000000 630.000000"
 preserveAspectRatio="xMidYMid meet">

<g transform="translate(0.000000,630.000000) scale(0.100000,-0.100000)"
fill="#000000" stroke="none">
<path d="M1237 5544 c-1 -2 -38 -4 -82 -5 -44 -1 -102 -8 -128 -16 -56 -16
-118 -73 -143 -130 -23 -53 -21 -138 3 -194 20 -45 802 -1486 1165 -2149 105
-190 202 -361 217 -380 15 -19 44 -46 64 -59 34 -23 36 -25 30 -70 -3 -25 -1
-63 5 -84 10 -37 10 -38 -25 -56 -35 -18 -37 -18 -87 3 -47 19 -72 20 -331 21
-154 0 -298 -1 -320 -2 -22 -2 -98 -1 -170 1 -153 5 -205 -7 -261 -59 l-37
-35 -35 31 c-60 53 -94 62 -238 66 -102 2 -141 -1 -179 -14 -65 -22 -126 -85
-148 -153 -21 -64 -21 -87 -2 -144 16 -46 318 -577 361 -633 13 -17 49 -44 79
-58 49 -24 66 -27 160 -28 l104 0 -15 -35 c-20 -48 -22 -402 -3 -447 25 -56
70 -104 124 -130 55 -27 85 -31 260 -28 33 1 92 0 130 -1 39 -1 89 1 113 5 23
3 62 3 87 -2 78 -15 224 21 277 68 15 13 20 12 50 -11 57 -43 107 -59 181 -57
101 3 115 3 207 -1 47 -3 105 -1 130 3 25 4 68 3 95 -1 50 -8 128 0 196 21 27
8 42 8 57 0 47 -25 122 -31 194 -16 39 8 74 12 79 10 29 -18 111 -23 173 -10
50 11 74 11 94 3 15 -5 57 -9 95 -8 92 2 127 3 237 0 83 -2 138 -2 260 -1 52
0 168 -1 223 -2 28 -1 77 0 107 2 30 2 87 2 125 1 101 -3 169 25 234 95 74 81
84 123 76 298 -8 167 -15 200 -54 255 -40 54 -21 61 59 20 60 -31 63 -32 192
-30 151 2 192 15 249 79 50 55 61 96 63 231 l1 116 42 8 c57 9 93 30 136 77
45 50 67 122 67 222 0 103 -23 170 -76 224 -72 74 -70 74 -629 72 -457 -2
-492 -3 -525 -21 -19 -10 -45 -28 -57 -39 l-23 -20 -22 20 c-55 50 -85 58
-228 58 -119 0 -140 -3 -179 -22 -40 -20 -46 -21 -72 -7 -15 7 -35 14 -43 14
-8 0 -18 5 -21 10 -4 6 311 618 700 1360 388 742 717 1374 731 1405 32 70 35
153 7 216 -25 56 -90 114 -145 131 -34 10 -315 13 -1408 13 l-1365 0 -54 -27
-54 -27 -41 22 c-35 18 -61 21 -186 24 -232 4 -850 9 -853 7z m3824 -356
c-845 -1623 -1259 -2410 -1273 -2419 -5 -3 -9 -9 -9 -13 3 -19 0 -27 -7 -22
-4 2 -9 -5 -9 -16 -1 -11 -11 -29 -23 -40 -11 -10 -18 -23 -15 -29 4 -5 1 -9
-5 -9 -7 0 -9 8 -5 20 8 25 -3 26 -22 3 -13 -16 -13 -16 -4 4 15 30 13 42 -3
21 -13 -17 -54 -20 -459 -28 -21 0 -46 4 -55 10 -12 7 -4 8 29 4 28 -4 54 -2
65 5 16 9 12 10 -21 6 -31 -4 -35 -3 -20 5 16 8 13 9 -16 5 -20 -2 -43 -7 -53
-11 -29 -11 15 -34 73 -37 31 -1 51 -7 51 -14 0 -9 42 -22 95 -29 6 0 22 -6
36 -12 31 -12 100 -27 113 -24 4 2 14 -2 22 -9 8 -6 23 -9 34 -6 11 3 18 1 14
-4 -5 -9 6 -11 53 -12 12 -1 20 -5 17 -9 -3 -4 -240 -8 -527 -7 l-522 0 119
60 c65 33 120 58 123 56 2 -3 -5 -8 -16 -12 -17 -5 -21 -15 -21 -51 l0 -44
383 1 c210 0 378 2 372 4 -5 3 -116 32 -245 65 -129 33 -265 70 -302 82 l-66
21 85 166 c163 318 286 556 308 596 12 22 20 46 17 54 -3 9 0 11 8 6 10 -6 12
-4 7 9 -4 10 -3 15 3 11 8 -5 15 10 8 18 -2 1 5 13 15 27 19 27 23 70 7 70
-13 0 -12 248 1 275 7 16 8 14 4 -10 -4 -25 -4 -27 6 -11 8 13 8 25 0 42 -6
14 -7 26 -1 29 6 3 6 15 0 30 -6 17 -6 25 1 25 6 0 7 5 4 10 -3 6 -1 10 5 10
6 0 8 5 5 10 -9 14 8 12 25 -2 12 -11 12 -10 3 2 -12 16 -12 29 1 68 4 12 12
19 18 16 7 -4 8 -2 4 4 -8 13 20 72 34 72 6 0 9 3 9 8 -3 20 2 32 13 26 7 -4
8 -3 4 4 -4 7 14 51 40 99 69 128 105 195 168 314 l56 105 72 34 c40 19 114
53 163 77 l90 43 -126 0 c-247 0 -459 -12 -459 -27 0 -7 -6 -13 -12 -14 -7 0
-4 -4 7 -9 l20 -9 -20 0 c-11 -1 -16 -5 -10 -9 6 -4 10 -21 11 -39 1 -25 -4
-34 -25 -43 -17 -7 -153 -9 -409 -8 l-384 3 62 78 62 78 -48 41 c-45 39 -105
95 -274 256 l-64 62 1322 0 1322 0 -59 -112z m-2682 -288 c611 -1135 604
-1122 592 -1143 -12 -18 -373 -427 -452 -511 l-37 -40 -7 -135 c-6 -122 -11
-208 -15 -236 0 -5 -8 2 -16 18 -8 15 -12 33 -8 39 4 6 3 8 -4 5 -13 -9 -95
139 -86 155 4 6 3 8 -3 5 -13 -8 -96 141 -87 156 4 7 3 9 -1 4 -5 -4 -37 43
-72 105 -64 116 -74 140 -48 118 8 -6 13 -17 12 -22 -1 -6 5 -13 13 -15 9 -3
11 -1 4 4 -5 4 -10 23 -9 41 0 18 -3 36 -7 38 -5 3 -8 2 -7 -3 4 -21 -2 -31
-17 -29 -8 1 -40 49 -70 107 -30 57 -48 95 -40 84 8 -11 19 -24 24 -30 4 -5 9
-13 10 -18 4 -18 33 -67 40 -67 4 0 13 -14 21 -31 16 -36 26 -33 12 5 -12 29
2 36 18 9 8 -14 10 -15 11 -3 0 16 77 53 91 44 5 -3 9 -11 9 -19 0 -8 4 -16 9
-19 5 -4 7 4 4 16 -4 20 -2 19 12 -4 18 -32 31 -38 15 -8 -6 11 -8 26 -4 32 4
7 3 8 -4 4 -7 -4 -12 -4 -13 1 -2 23 -8 46 -14 51 -3 4 -3 -9 0 -28 3 -23 2
-30 -4 -21 -5 7 -8 26 -7 42 1 16 -4 31 -11 34 -8 2 -13 13 -11 22 2 11 -2 17
-10 15 -8 -1 -11 2 -8 7 8 13 -4 42 -15 35 -5 -3 -6 1 -4 8 7 18 -49 120 -60
111 -4 -5 -5 -2 -1 5 4 7 -3 31 -17 55 -34 57 -54 96 -275 512 -104 198 -218
412 -251 475 -34 63 -95 181 -136 263 l-75 147 400 -2 401 -3 208 -385z m-594
-830 c9 -16 13 -30 11 -30 -3 0 -12 14 -21 30 -9 17 -13 30 -11 30 3 0 12 -13
21 -30z m1622 -95 c-12 -12 -28 -30 -35 -41 -7 -10 -5 -4 3 14 9 18 22 35 30
38 8 3 11 13 8 22 -4 14 -3 15 5 3 8 -11 5 -20 -11 -36z m-1567 -5 c11 -22 18
-40 15 -40 -2 0 -14 18 -25 40 -11 22 -18 40 -15 40 2 0 14 -18 25 -40z m1580
-10 c0 -5 -4 -10 -10 -10 -5 0 -10 5 -10 10 0 6 5 10 10 10 6 0 10 -4 10 -10z
m-1476 -181 c54 -98 71 -135 43 -94 -24 35 -108 195 -103 195 3 0 30 -46 60
-101z m133 -139 c1 -11 -2 -22 -6 -24 -6 -4 -7 26 -2 42 3 8 7 -1 8 -18z
m1343 -4 c0 -8 -4 -18 -10 -21 -5 -3 -10 3 -10 14 0 12 5 21 10 21 6 0 10 -6
10 -14z m-1195 -46 c-3 -5 -10 -10 -16 -10 -5 0 -9 5 -9 10 0 6 7 10 16 10 8
0 12 -4 9 -10z m-75 -46 c0 -8 -4 -12 -10 -9 -5 3 -10 10 -10 16 0 5 5 9 10 9
6 0 10 -7 10 -16z m1340 -934 c8 -5 11 -10 5 -10 -5 0 -17 5 -25 10 -8 5 -10
10 -5 10 6 0 17 -5 25 -10z m204 -16 c3 -8 2 -12 -4 -9 -6 3 -10 10 -10 16 0
14 7 11 14 -7z m-117 0 c-3 -3 -12 -4 -19 -1 -8 3 -5 6 6 6 11 1 17 -2 13 -5z
m-2542 -589 c53 -96 100 -177 104 -179 3 -2 49 77 101 175 l95 179 73 0 74 0
-31 -57 c-17 -31 -84 -153 -149 -270 l-117 -213 -50 0 -51 0 -152 263 c-84
145 -152 267 -152 270 0 4 35 7 79 7 l79 0 97 -175z m1155 162 c43 -22 52 -71
48 -277 -3 -200 -8 -219 -58 -240 -17 -7 -119 -10 -294 -8 l-268 3 -24 28
c-24 28 -24 31 -24 238 l0 211 29 29 29 29 269 0 c196 0 275 -4 293 -13z m410
-197 l0 -210 160 0 160 0 0 210 0 210 75 0 75 0 0 -217 c0 -120 -5 -235 -11
-255 -17 -64 -35 -68 -298 -68 -142 0 -239 4 -254 11 -49 22 -52 38 -55 292
l-4 237 76 0 76 0 0 -210z m1299 185 c12 -11 23 -35 27 -53 l7 -32 -252 0
-251 0 0 -155 0 -155 180 0 180 0 0 95 0 95 70 0 70 0 0 -109 c0 -59 -5 -122
-11 -140 -20 -57 -40 -61 -318 -61 l-251 0 -32 29 -33 29 0 199 c0 109 3 210
8 225 15 54 36 58 324 55 248 -2 264 -3 282 -22z m391 -245 l0 -270 -70 0 -70
0 0 270 0 270 70 0 70 0 0 -270z m510 0 l0 -270 -75 0 -75 0 0 110 0 110 -165
0 -165 0 0 60 0 60 165 0 165 0 0 100 0 100 75 0 75 0 0 -270z m730 215 l0
-55 -120 0 -120 0 0 -215 0 -215 -70 0 -70 0 -2 213 -3 212 -122 3 -123 3 0
54 0 55 315 0 315 0 0 -55z m-3773 -863 c16 -10 63 -256 51 -260 -17 -7 -38 8
-38 28 0 31 -46 27 -54 -5 -4 -16 -13 -25 -26 -25 -16 0 -19 5 -15 23 3 12 14
68 25 125 24 126 27 133 57 114z m1787 2 c9 -3 16 -15 16 -26 0 -15 -5 -18
-16 -14 -16 6 -44 -9 -44 -24 0 -4 16 -27 35 -51 41 -51 47 -105 16 -133 -26
-24 -75 -18 -79 10 -3 18 1 20 28 16 26 -4 30 -1 30 18 0 12 -14 39 -30 60
-44 55 -49 92 -17 124 27 27 35 30 61 20z m1220 0 c9 -3 16 -14 16 -24 0 -14
-7 -18 -27 -17 -40 3 -41 -27 -2 -76 59 -73 39 -152 -36 -145 -21 2 -31 9 -33
23 -2 17 3 20 30 20 46 0 46 23 3 75 -30 36 -36 49 -33 84 2 32 8 43 28 53 29
15 33 15 54 7z m-3274 -114 l0 -110 25 0 c18 0 25 -5 25 -20 0 -17 -7 -20 -45
-20 l-45 0 0 130 c0 123 1 130 20 130 19 0 20 -7 20 -110z m572 93 c22 -20 24
-76 3 -93 -12 -10 -12 -15 6 -39 39 -52 -4 -111 -81 -111 l-30 0 0 130 0 130
42 0 c24 0 49 -7 60 -17z m398 -113 c0 -123 -1 -130 -20 -130 -19 0 -20 7 -20
130 0 123 1 130 20 130 19 0 20 -7 20 -130z m221 68 l24 -63 3 63 c3 54 6 62
22 62 19 0 20 -8 20 -130 0 -121 -1 -130 -19 -130 -15 0 -25 16 -43 68 l-23
67 -3 -67 c-3 -60 -5 -68 -22 -68 -19 0 -20 8 -20 130 0 120 1 130 19 130 13
0 25 -17 42 -62z m327 37 c38 -48 40 -161 4 -206 -11 -12 -34 -23 -60 -26
l-42 -6 0 132 0 131 39 0 c30 0 44 -6 59 -25z m222 -80 c0 -88 3 -107 16 -112
26 -10 34 17 34 120 0 90 1 97 20 97 19 0 20 -7 20 -94 0 -131 -15 -166 -72
-166 -46 0 -58 30 -58 152 0 101 1 108 20 108 19 0 20 -7 20 -105z m580 91 c0
-8 -7 -16 -15 -20 -12 -4 -15 -27 -15 -116 0 -103 -1 -110 -20 -110 -19 0 -20
7 -20 110 0 89 -3 112 -15 116 -8 4 -15 12 -15 20 0 10 14 14 50 14 36 0 50
-4 50 -14z m253 -3 c26 -30 30 -68 12 -107 -16 -33 -16 -39 -1 -83 20 -58 20
-55 -6 -51 -15 2 -25 15 -36 46 -18 55 -32 54 -32 -3 0 -38 -3 -45 -20 -45
-19 0 -20 7 -20 130 l0 130 43 0 c29 0 49 -6 60 -17z m217 -113 c0 -123 -1
-130 -20 -130 -19 0 -20 7 -20 130 0 123 1 130 20 130 19 0 20 -7 20 -130z
m250 115 c0 -9 -9 -15 -25 -15 -22 0 -25 -4 -25 -40 0 -36 2 -40 26 -40 33 0
30 -33 -4 -38 -18 -3 -22 -10 -22 -38 0 -30 3 -34 25 -34 18 0 25 -5 25 -20 0
-17 -7 -20 -45 -20 l-45 0 0 130 0 130 45 0 c33 0 45 -4 45 -15z"/>
<path d="M3447 3681 c-4 -17 -3 -21 5 -13 5 5 8 16 6 23 -3 8 -7 3 -11 -10z"/>
<path d="M3716 2688 c3 -4 11 -5 19 -1 21 7 19 12 -4 10 -11 0 -18 -5 -15 -9z"/>
<path d="M3048 2683 c7 -3 16 -2 19 1 4 3 -2 6 -13 5 -11 0 -14 -3 -6 -6z"/>
<path d="M3112 2681 c-11 -7 -11 -9 0 -14 9 -3 15 1 15 9 0 8 -1 14 -1 14 -1
0 -7 -4 -14 -9z"/>
<path d="M2190 3416 c0 -2 8 -10 18 -17 15 -13 16 -12 3 4 -13 16 -21 21 -21
13z"/>
<path d="M2176 3382 c-3 -5 1 -9 9 -9 8 0 15 4 15 9 0 4 -4 8 -9 8 -6 0 -12
-4 -15 -8z"/>
<path d="M1710 1915 l0 -155 190 0 190 0 0 155 0 155 -190 0 -190 0 0 -155z"/>
<path d="M1737 1160 c-11 -42 -8 -70 8 -70 16 0 17 15 6 65 l-7 30 -7 -25z"/>
<path d="M2007 1223 c-4 -3 -7 -22 -7 -41 0 -27 3 -33 16 -28 9 3 18 6 20 6 2
0 4 11 4 24 0 25 -22 51 -33 39z"/>
<path d="M2006 1113 c-3 -4 -6 -21 -6 -40 0 -22 5 -33 15 -33 18 0 37 34 29
54 -6 16 -29 28 -38 19z"/>
<path d="M2950 1135 c0 -91 6 -109 27 -82 30 36 21 158 -12 171 -13 4 -15 -10
-15 -89z"/>
<path d="M4007 1224 c-9 -10 -9 -94 1 -94 14 0 29 15 36 36 7 23 -24 71 -37
58z"/>
</g>
</svg>
