<?xml version="1.0" standalone="no"?>
<!DOCTYPE svg PUBLIC "-//W3C//DTD SVG 20010904//EN"
 "http://www.w3.org/TR/2001/REC-SVG-20010904/DTD/svg10.dtd">
<svg version="1.0" xmlns="http://www.w3.org/2000/svg"
 width="601.000000pt" height="600.000000pt" viewBox="0 0 601.000000 600.000000"
 preserveAspectRatio="xMidYMid meet">

<g transform="translate(0.000000,600.000000) scale(0.100000,-0.100000)"
fill="#000000" stroke="none">
<path d="M890 5015 c0 -7 84 -170 91 -175 4 -3 9 -15 13 -27 4 -13 12 -23 17
-23 5 0 9 -6 9 -14 0 -13 29 -75 40 -86 5 -5 41 -70 79 -145 9 -16 18 -32 21
-35 3 -3 21 -36 40 -75 19 -38 37 -72 40 -75 3 -3 18 -32 35 -65 16 -33 32
-62 35 -65 3 -3 21 -36 40 -75 19 -38 37 -72 40 -75 3 -3 20 -33 38 -68 39
-76 55 -105 62 -112 3 -3 21 -36 40 -75 19 -38 37 -72 40 -75 3 -3 18 -32 35
-65 16 -33 32 -62 35 -65 3 -3 21 -36 40 -75 19 -38 37 -72 40 -75 3 -3 17
-27 31 -55 14 -27 44 -84 66 -125 23 -41 49 -91 59 -110 11 -19 21 -37 24 -40
3 -3 18 -32 35 -65 16 -33 32 -62 35 -65 3 -3 21 -36 40 -75 19 -38 38 -72 41
-75 3 -3 15 -25 27 -50 12 -25 45 -85 72 -135 28 -49 55 -102 61 -117 6 -16
15 -28 20 -28 5 0 9 -9 9 -20 0 -11 3 -20 8 -20 4 0 16 -20 27 -45 19 -43 45
-61 45 -30 0 8 3 15 8 15 4 0 21 28 37 63 17 34 36 68 43 75 6 7 12 20 12 28
0 8 5 14 10 14 6 0 10 6 10 14 0 13 29 75 40 86 6 6 60 107 110 205 19 39 38
72 43 73 4 2 7 10 7 17 0 8 6 20 13 27 7 7 21 33 32 58 11 25 22 47 25 50 5 5
39 68 79 145 9 16 18 32 21 35 3 3 14 24 24 48 l19 42 -33 63 c-18 34 -49 94
-69 132 -19 39 -38 72 -41 75 -3 3 -14 25 -25 50 -11 25 -22 47 -26 50 -3 3
-9 15 -13 28 -4 12 -12 22 -17 22 -5 0 -9 6 -9 14 0 13 -29 75 -40 86 -3 3
-21 37 -41 75 -70 138 -104 200 -109 205 -3 3 -14 25 -25 50 -11 25 -22 47
-25 50 -3 3 -21 37 -40 75 -19 39 -37 72 -40 75 -3 3 -18 32 -35 65 -16 33
-33 62 -36 65 -4 3 -10 16 -14 30 -4 14 -15 36 -24 50 -9 14 -32 57 -51 95
-19 39 -37 72 -40 75 -3 3 -25 44 -49 93 l-44 87 -558 0 c-308 0 -559 -2 -559
-5z m1049 -164 c12 -16 21 -36 21 -45 0 -9 4 -16 10 -16 5 0 12 -11 16 -25 3
-14 10 -25 15 -25 5 0 9 -9 9 -20 0 -11 4 -20 9 -20 5 0 12 -12 16 -27 3 -15
10 -30 14 -33 3 -3 25 -41 48 -85 68 -134 98 -190 103 -195 11 -11 40 -72 40
-85 0 -7 3 -15 8 -17 4 -1 23 -34 42 -73 19 -38 37 -72 40 -75 3 -3 19 -32 35
-65 17 -33 32 -62 35 -65 3 -3 32 -59 65 -125 33 -66 62 -122 65 -125 3 -3 23
-41 46 -85 77 -152 99 -190 108 -197 12 -8 12 -68 0 -76 -5 -4 -24 -36 -43
-72 -52 -104 -106 -205 -111 -210 -3 -3 -21 -36 -40 -75 -19 -38 -37 -72 -40
-75 -3 -3 -18 -32 -35 -65 -16 -33 -32 -62 -35 -65 -3 -3 -18 -31 -34 -62 -31
-61 -45 -70 -61 -38 -46 90 -81 156 -86 160 -3 3 -15 25 -27 50 -12 25 -44 86
-72 135 -28 50 -60 110 -72 135 -12 25 -24 47 -27 50 -3 3 -18 28 -32 55 -64
125 -94 180 -100 185 -3 3 -13 23 -23 45 -11 22 -22 42 -25 45 -3 3 -26 46
-51 95 -24 50 -47 92 -51 95 -3 3 -14 23 -25 45 -10 22 -20 42 -23 45 -4 3
-22 37 -41 75 -19 39 -37 72 -40 75 -3 3 -14 23 -25 45 -11 22 -23 42 -27 43
-5 2 -8 12 -8 23 0 10 -4 19 -10 19 -5 0 -10 6 -10 14 0 8 -6 21 -12 28 -19
21 -48 78 -48 94 0 8 -3 14 -7 14 -5 0 -17 20 -28 45 -11 25 -22 45 -25 45 -4
0 -14 19 -25 43 -10 23 -21 44 -24 47 -3 3 -22 37 -40 75 -19 39 -37 72 -40
75 -4 3 -15 23 -26 45 -11 22 -23 42 -27 43 -5 2 -8 10 -8 18 0 7 -18 43 -40
79 -22 36 -40 70 -40 75 0 6 145 10 399 10 l400 0 20 -29z"/>
<path d="M2310 5007 c0 -7 7 -22 15 -33 8 -10 15 -27 15 -36 0 -10 4 -18 9
-18 5 0 13 -10 17 -22 4 -13 10 -25 13 -28 4 -3 15 -25 26 -50 11 -25 22 -47
25 -50 3 -3 22 -36 41 -75 70 -138 104 -200 112 -203 4 -2 7 -10 7 -18 0 -12
84 -14 561 -14 308 0 559 -3 557 -7 -25 -54 -53 -109 -57 -113 -3 -3 -22 -36
-41 -75 -19 -38 -37 -72 -40 -75 -3 -3 -25 -45 -50 -95 -25 -49 -47 -92 -50
-95 -3 -3 -14 -23 -25 -45 -11 -22 -22 -42 -25 -45 -3 -3 -20 -34 -38 -70 -19
-36 -58 -110 -87 -165 -30 -55 -64 -120 -77 -145 -13 -25 -25 -47 -28 -50 -3
-3 -18 -30 -33 -60 -48 -92 -138 -262 -168 -315 -15 -27 -38 -70 -51 -95 -13
-25 -26 -46 -30 -48 -5 -2 -8 -10 -8 -18 0 -8 -11 -31 -23 -52 -13 -20 -32
-55 -42 -77 -11 -22 -21 -42 -24 -45 -4 -3 -25 -42 -49 -87 -23 -46 -50 -97
-60 -115 -9 -18 -20 -34 -24 -36 -5 -2 -8 -12 -8 -22 0 -10 -3 -20 -7 -22 -5
-1 -27 -39 -49 -83 -64 -124 -78 -150 -86 -153 -5 -2 -8 -10 -8 -17 0 -16 -30
-73 -48 -93 -8 -9 -10 -18 -5 -23 5 -5 255 -8 558 -7 l549 3 21 40 c11 22 23
42 26 45 4 3 10 16 14 30 4 14 10 27 14 30 3 3 18 28 32 55 122 239 165 321
169 325 3 3 21 37 40 75 19 39 38 72 43 73 4 2 7 10 7 17 0 13 29 74 40 85 5
5 40 71 109 205 20 39 38 72 41 75 3 3 14 25 25 50 11 25 22 47 25 50 3 3 21
37 40 75 19 39 37 72 40 75 3 3 18 32 35 65 16 33 39 77 52 97 13 21 23 44 23
53 0 8 3 15 8 15 4 0 23 33 42 73 19 39 37 74 40 77 3 3 23 41 46 85 97 190
129 250 137 253 4 2 7 11 7 21 0 9 4 21 9 26 5 6 30 51 56 100 26 50 51 94 56
100 5 5 9 17 9 26 0 10 3 19 8 21 7 3 57 96 137 253 22 44 42 82 45 85 10 10
120 229 120 239 0 8 -393 11 -1390 11 -1139 0 -1390 -2 -1390 -13z m2545 -154
c-3 -15 -10 -30 -14 -33 -3 -3 -15 -25 -26 -50 -11 -25 -22 -47 -25 -50 -3 -3
-21 -36 -39 -75 -19 -38 -37 -72 -40 -75 -3 -3 -26 -45 -51 -95 -25 -49 -48
-91 -52 -93 -5 -2 -8 -12 -8 -22 0 -10 -3 -20 -7 -22 -7 -3 -27 -40 -137 -253
-22 -44 -43 -82 -46 -85 -3 -3 -32 -59 -65 -125 -33 -66 -62 -122 -65 -125 -5
-5 -28 -48 -135 -258 -33 -64 -62 -119 -65 -122 -3 -3 -21 -36 -40 -75 -19
-38 -37 -72 -40 -75 -3 -3 -14 -25 -25 -50 -11 -25 -22 -47 -25 -50 -3 -3 -19
-32 -35 -65 -17 -33 -32 -62 -35 -65 -3 -3 -21 -36 -40 -75 -19 -38 -37 -72
-40 -75 -3 -3 -14 -25 -25 -50 -11 -25 -22 -47 -25 -50 -3 -3 -21 -36 -40 -75
-19 -38 -37 -72 -40 -75 -3 -3 -26 -45 -50 -95 -25 -49 -47 -92 -50 -95 -3 -3
-21 -37 -40 -77 -22 -44 -43 -74 -55 -77 -35 -10 -773 -7 -780 4 -5 7 49 125
65 140 3 3 14 23 25 45 11 22 22 42 25 45 5 5 59 106 111 210 19 36 36 67 39
70 11 11 40 72 40 86 0 8 4 14 9 14 5 0 13 10 17 23 4 12 9 24 13 27 3 3 25
41 47 85 80 155 99 190 104 195 5 5 59 106 111 210 19 36 36 67 39 70 3 3 21
37 40 75 19 39 37 72 40 75 4 4 43 77 119 225 14 28 28 52 31 55 3 3 25 43 49
90 24 47 64 121 88 165 23 44 53 100 66 125 12 25 24 47 27 50 3 3 20 34 38
70 19 36 49 93 67 128 l34 62 -632 0 -632 1 -67 138 c-38 76 -68 141 -68 144
0 4 522 7 1161 7 l1161 0 -7 -27z"/>
<path d="M485 1723 c3 -15 10 -30 13 -33 4 -3 19 -27 33 -55 25 -48 53 -100
118 -215 17 -30 41 -75 53 -100 13 -25 25 -47 28 -50 3 -3 14 -22 25 -42 l20
-38 122 0 c103 0 123 2 123 15 0 9 11 33 25 55 14 22 25 44 25 50 0 5 4 10 9
10 5 0 13 9 16 21 4 11 23 48 42 82 19 34 53 95 75 136 21 40 49 90 62 110 12
20 25 46 28 59 6 22 5 22 -87 22 -104 0 -96 5 -146 -90 -19 -36 -37 -66 -41
-68 -5 -2 -8 -12 -8 -22 0 -10 -3 -20 -7 -22 -5 -1 -20 -25 -34 -53 -62 -120
-83 -155 -91 -147 -11 11 -50 80 -81 142 -12 25 -24 47 -27 50 -3 3 -20 34
-38 70 -19 36 -43 82 -55 103 l-21 37 -94 0 -94 0 7 -27z"/>
<path d="M1464 1734 c-48 -25 -54 -58 -54 -276 0 -187 1 -196 23 -229 l23 -34
297 -3 c384 -3 357 -23 357 273 0 203 -3 221 -44 260 -19 19 -36 20 -296 22
-233 2 -280 0 -306 -13z m480 -110 c8 -20 8 -298 0 -318 -5 -14 -31 -16 -184
-16 -153 0 -179 2 -184 16 -12 31 -7 309 6 322 8 8 64 12 184 12 147 0 173 -2
178 -16z"/>
<path d="M2290 1500 l0 -252 29 -29 29 -29 289 0 288 0 28 25 27 26 0 255 0
255 -77 -3 -78 -3 -3 -227 -2 -228 -180 0 c-99 0 -181 1 -182 3 -1 1 -5 103
-8 227 l-5 225 -77 3 -78 3 0 -251z"/>
<path d="M3220 1743 c-8 -4 -27 -20 -42 -36 l-28 -29 0 -207 c0 -178 2 -210
17 -231 34 -50 32 -49 331 -50 l284 0 29 29 c27 27 29 36 35 130 3 56 3 113 0
126 -6 24 -10 25 -81 25 l-75 0 0 -95 c0 -90 -1 -95 -22 -100 -13 -3 -97 -4
-188 -3 l-165 3 -3 158 -3 157 266 0 265 0 0 33 c0 24 -9 41 -31 63 l-30 29
-272 2 c-150 1 -279 -1 -287 -4z"/>
<path d="M4008 1738 c-3 -7 -5 -132 -4 -278 l1 -265 83 -3 82 -3 -2 278 -3
278 -76 3 c-56 2 -78 -1 -81 -10z"/>
<path d="M4550 1635 l0 -115 -170 0 -171 0 3 -62 3 -63 168 -3 167 -2 0 -100
0 -100 75 0 75 0 0 280 0 280 -75 0 -75 0 0 -115z"/>
<path d="M4802 1688 l3 -63 138 -3 137 -3 0 -214 0 -215 80 0 80 0 0 215 0
215 135 0 135 0 0 65 0 65 -355 0 -356 0 3 -62z"/>
<path d="M1150 820 c0 -89 0 -90 25 -90 25 0 25 1 25 90 0 89 0 90 -25 90 -25
0 -25 -1 -25 -90z"/>
<path d="M1300 820 c0 -89 0 -90 25 -90 22 0 24 4 27 60 l3 59 80 -59 c44 -33
90 -59 103 -60 21 0 22 3 22 90 0 89 0 90 -25 90 -24 0 -25 -3 -25 -62 0 -35
-4 -58 -8 -53 -9 13 -79 65 -87 65 -3 0 -18 11 -33 25 -15 14 -39 25 -54 25
l-28 0 0 -90z"/>
<path d="M1630 895 c0 -10 10 -15 34 -15 62 0 66 -5 66 -81 0 -67 1 -69 25
-69 24 0 25 2 25 75 l0 75 45 0 c33 0 45 4 45 15 0 13 -20 15 -120 15 -100 0
-120 -2 -120 -15z"/>
<path d="M1940 820 l0 -90 33 -1 c55 -1 141 -1 155 0 6 1 12 8 12 16 0 12 -15
15 -76 15 -66 0 -75 2 -72 18 3 14 14 17 68 17 53 0 65 3 68 17 3 14 -7 18
-65 20 -60 3 -68 5 -68 23 0 18 8 20 73 23 55 2 72 6 72 17 0 12 -19 15 -100
15 l-100 0 0 -90z"/>
<path d="M2240 820 c0 -89 0 -90 24 -90 21 0 25 6 28 33 3 28 7 32 33 33 42 2
54 -4 71 -37 10 -20 22 -29 39 -29 25 0 33 14 15 25 -15 9 -12 44 5 61 17 18
19 47 5 75 -10 17 -22 19 -115 19 l-105 0 0 -90z m177 44 c9 -23 -15 -34 -74
-34 -50 0 -53 1 -53 25 0 24 3 25 60 25 46 0 62 -4 67 -16z"/>
<path d="M2570 820 c0 -83 1 -90 20 -90 18 0 20 7 20 55 0 30 4 55 10 55 8 0
109 -68 147 -100 7 -5 21 -10 33 -10 19 0 20 6 20 90 0 83 -1 90 -20 90 -18 0
-20 -7 -20 -55 0 -30 -4 -55 -8 -55 -5 0 -19 9 -32 20 -13 11 -26 20 -30 20
-3 0 -15 8 -26 18 -36 34 -69 52 -91 52 -22 0 -23 -3 -23 -90z"/>
<path d="M3000 895 c0 -8 -3 -15 -7 -15 -5 0 -24 -27 -43 -60 -19 -33 -38 -60
-42 -60 -5 0 -8 -7 -8 -15 0 -9 9 -15 23 -15 19 0 59 45 76 85 13 31 51 39 51
10 0 -7 4 -15 8 -17 4 -1 18 -20 31 -40 18 -30 29 -38 52 -38 l29 0 -47 73
c-25 39 -53 80 -61 90 -19 21 -62 23 -62 2z"/>
<path d="M3180 896 c0 -11 14 -16 48 -18 l47 -3 3 -72 c3 -70 4 -73 27 -73 24
0 25 2 25 75 l0 75 40 0 c29 0 40 4 40 15 0 12 -19 15 -115 15 -94 0 -115 -3
-115 -14z"/>
<path d="M3490 820 c0 -89 0 -90 25 -90 25 0 25 1 25 90 0 89 0 90 -25 90 -25
0 -25 -1 -25 -90z"/>
<path d="M3656 894 c-9 -23 -7 -137 3 -152 6 -10 36 -13 110 -13 56 0 106 3
112 6 14 9 11 149 -3 163 -8 8 -48 12 -114 12 -84 0 -103 -3 -108 -16z m184
-74 l0 -61 -72 3 -73 3 -3 43 c-4 61 8 72 84 72 l64 0 0 -60z"/>
<path d="M4000 820 c0 -83 1 -90 20 -90 18 0 20 7 20 55 0 58 13 70 44 40 8
-8 19 -15 24 -15 6 0 12 -3 14 -8 8 -18 88 -72 107 -72 20 0 21 5 21 90 0 83
-1 90 -20 90 -18 0 -20 -7 -20 -55 0 -57 -8 -66 -34 -40 -8 8 -17 15 -21 15
-3 0 -11 5 -18 10 -7 6 -28 24 -47 40 -20 17 -47 30 -62 30 l-28 0 0 -90z"/>
<path d="M4432 898 c-7 -7 -12 -17 -12 -24 0 -7 -4 -14 -8 -16 -4 -1 -26 -31
-49 -65 l-41 -63 29 0 c22 0 32 7 41 25 6 14 15 25 20 25 4 0 8 6 8 13 1 6 10
23 20 36 l20 23 20 -23 c10 -13 19 -30 20 -36 0 -7 4 -13 8 -13 5 0 14 -11 20
-25 9 -19 19 -25 43 -25 30 0 31 1 16 18 -10 10 -17 24 -17 30 0 7 -3 12 -7
12 -5 0 -24 27 -43 60 -36 61 -61 75 -88 48z"/>
<path d="M4670 818 l0 -93 95 3 c74 3 95 6 95 18 0 11 -16 14 -70 14 l-70 0 0
75 c0 73 -1 75 -25 75 -25 0 -25 -1 -25 -92z"/>
</g>
</svg>
