<?xml version="1.0" standalone="no"?>
<!DOCTYPE svg PUBLIC "-//W3C//DTD SVG 20010904//EN"
 "http://www.w3.org/TR/2001/REC-SVG-20010904/DTD/svg10.dtd">
<svg version="1.0" xmlns="http://www.w3.org/2000/svg"
 width="820.000000pt" height="422.000000pt" viewBox="0 0 820.000000 422.000000"
 preserveAspectRatio="xMidYMid meet">

<g transform="translate(0.000000,422.000000) scale(0.100000,-0.100000)"
fill="#000000" stroke="none">
<path d="M2485 3735 c3 -22 8 -51 12 -64 4 -16 2 -22 -4 -18 -24 15 29 -148
82 -253 42 -82 189 -296 256 -372 59 -67 246 -236 324 -293 48 -36 52 -38 90
-71 l30 -27 -40 24 c-22 12 -42 25 -45 28 -3 4 -28 22 -56 41 -60 42 -126 96
-243 202 -47 42 -88 75 -92 72 -4 -2 -52 47 -106 110 -54 63 -100 112 -102
110 -2 -2 11 -29 30 -60 48 -81 441 -488 557 -577 89 -69 407 -259 537 -322
248 -119 304 -145 310 -145 9 0 105 -62 105 -68 0 -4 -13 -2 -82 13 -39 8 -14
-11 45 -37 102 -43 315 -100 522 -139 42 -8 145 -14 257 -14 124 0 188 -4 188
-10 0 -14 -309 -375 -446 -522 -70 -74 -96 -109 -81 -105 22 5 22 5 -4 -29
-14 -19 -59 -63 -100 -98 -41 -35 -103 -89 -138 -119 -43 -38 -88 -93 -137
-167 -81 -123 -204 -333 -204 -349 0 -5 2 -7 4 -5 2 2 41 51 87 109 144 181
599 626 874 854 39 32 81 68 95 80 145 125 424 327 588 425 l127 77 3 65 c6
128 -45 283 -112 347 -42 40 -416 238 -425 225 -5 -9 -137 69 -176 104 -5 5
-32 24 -60 43 -27 19 -56 41 -65 48 -35 28 -192 135 -283 193 -73 45 -96 64
-87 73 7 7 13 7 18 1 11 -16 63 -47 69 -42 5 6 -95 87 -107 87 -11 0 -128
-156 -148 -197 -14 -30 -14 -38 2 -95 37 -133 131 -262 315 -431 42 -38 51
-43 46 -25 -3 13 -3 18 2 13 14 -18 70 -55 85 -55 7 0 31 -17 54 -38 22 -20
58 -51 80 -69 21 -17 36 -34 32 -38 -11 -12 -203 -5 -320 10 -216 28 -553 125
-775 222 -381 167 -698 376 -949 627 -205 205 -284 318 -363 521 -18 44 -43
100 -57 125 l-25 45 6 -40z m1895 -832 c0 -10 13 -46 29 -80 25 -53 54 -97
152 -238 11 -16 0 -8 -26 20 -84 89 -152 201 -170 283 -4 21 -3 32 4 32 6 0
11 -8 11 -17z m-31 -897 c155 -38 320 -64 424 -68 43 -1 81 -6 83 -10 17 -27
-484 44 -576 81 -38 15 1 14 69 -3z m749 -73 c-10 -2 -28 -2 -40 0 -13 2 -5 4
17 4 22 1 32 -1 23 -4z"/>
<path d="M4686 3023 c53 -48 116 -93 129 -93 10 0 -15 22 -69 63 -64 49 -102
68 -60 30z"/>
<path d="M4837 2909 c7 -7 15 -10 18 -7 3 3 -2 9 -12 12 -14 6 -15 5 -6 -5z"/>
<path d="M4400 1145 c-7 -9 -8 -15 -2 -15 5 0 12 7 16 15 3 8 4 15 2 15 -2 0
-9 -7 -16 -15z"/>
</g>
</svg>
