<?xml version="1.0" standalone="no"?>
<!DOCTYPE svg PUBLIC "-//W3C//DTD SVG 20010904//EN"
 "http://www.w3.org/TR/2001/REC-SVG-20010904/DTD/svg10.dtd">
<svg version="1.0" xmlns="http://www.w3.org/2000/svg"
 width="1100.000000pt" height="1422.000000pt" viewBox="0 0 1100.000000 1422.000000"
 preserveAspectRatio="xMidYMid meet">

<g transform="translate(0.000000,1422.000000) scale(0.100000,-0.100000)"
fill="#000000" stroke="none">
<path d="M0 7110 l0 -7110 5500 0 5500 0 0 7110 0 7110 -5500 0 -5500 0 0
-7110z m3566 4132 c6 -4 14 -24 18 -45 4 -20 27 -66 51 -101 24 -36 54 -84 66
-108 12 -24 27 -50 34 -58 6 -8 18 -37 25 -64 7 -26 23 -60 35 -75 29 -35 88
-144 110 -206 21 -55 39 -89 66 -120 23 -27 114 -203 122 -237 4 -14 22 -46
40 -70 29 -38 63 -100 88 -163 33 -83 52 -122 78 -154 16 -20 37 -55 46 -76
47 -109 96 -202 130 -245 11 -14 28 -46 38 -70 38 -94 92 -197 129 -246 21
-28 38 -62 38 -75 1 -13 9 -38 18 -55 9 -17 30 -56 46 -85 16 -30 39 -67 51
-84 12 -16 30 -55 40 -85 10 -30 30 -71 44 -91 15 -20 35 -55 46 -79 11 -24
32 -58 47 -74 16 -17 28 -38 28 -47 0 -22 28 -87 50 -119 35 -49 120 -221 120
-242 0 -12 7 -30 17 -40 15 -17 15 -21 0 -58 -10 -22 -25 -59 -34 -82 -9 -24
-27 -60 -40 -80 -13 -21 -23 -41 -23 -46 0 -4 -14 -27 -31 -50 -17 -23 -39
-67 -50 -99 -12 -32 -29 -67 -39 -78 -10 -11 -30 -45 -46 -75 -15 -30 -38 -68
-50 -85 -12 -16 -31 -56 -42 -87 -10 -32 -26 -66 -34 -75 -14 -18 -66 -102
-100 -166 -9 -18 -17 -40 -18 -50 0 -21 -44 -100 -65 -117 -15 -13 -85 -153
-85 -171 0 -16 -31 -69 -60 -104 -30 -36 -110 -187 -110 -207 0 -8 -21 -45
-47 -84 -25 -38 -55 -89 -66 -114 -42 -98 -79 -170 -88 -170 -18 0 -78 96 -93
150 -9 32 -33 76 -56 105 -22 28 -40 55 -40 61 0 6 -15 32 -34 58 -19 27 -39
69 -46 95 -6 25 -26 66 -44 91 -45 64 -79 126 -106 194 -13 33 -38 79 -57 102
-33 45 -79 129 -132 245 -16 36 -37 71 -45 78 -19 16 -66 96 -66 112 0 18 -78
167 -109 208 -14 18 -33 55 -42 82 -10 27 -38 83 -63 124 -25 42 -46 78 -46
81 0 3 -13 22 -28 42 -16 20 -37 63 -47 95 -10 31 -25 63 -32 69 -8 6 -24 30
-35 52 -11 23 -28 50 -37 61 -19 21 -51 101 -51 125 0 7 -17 34 -37 59 -39 47
-54 74 -118 216 -20 43 -49 95 -65 115 -31 40 -100 170 -100 192 0 7 -18 38
-40 68 -21 30 -49 75 -60 100 -68 142 -109 217 -137 252 -18 22 -33 47 -33 56
0 29 -24 87 -50 122 -15 20 -37 54 -48 77 -12 23 -32 53 -46 67 -13 15 -26 41
-30 58 -6 29 -103 212 -131 248 -7 8 -20 40 -30 70 -10 30 -30 69 -44 85 -24
28 -76 127 -132 248 -12 27 -33 61 -46 75 -21 23 -65 107 -132 252 -9 19 -25
46 -37 60 -26 29 -64 100 -64 117 0 17 -56 117 -112 200 -55 81 -75 132 -55
145 15 10 2148 10 2163 0z m6000 -3 c3 -6 2 -21 -4 -32 -6 -12 -18 -44 -28
-72 -10 -27 -23 -57 -30 -65 -6 -8 -22 -35 -34 -60 -12 -25 -32 -56 -45 -70
-12 -14 -28 -46 -35 -73 -7 -26 -25 -66 -39 -90 -15 -23 -40 -67 -55 -97 -16
-30 -37 -60 -46 -67 -10 -7 -23 -34 -29 -60 -11 -43 -95 -204 -127 -243 -7 -8
-22 -44 -33 -79 -12 -36 -30 -74 -40 -85 -10 -12 -31 -45 -46 -74 -15 -29 -31
-55 -36 -58 -5 -2 -15 -27 -23 -53 -18 -61 -36 -95 -86 -167 -22 -32 -40 -61
-40 -67 0 -5 -10 -22 -21 -39 -12 -16 -26 -48 -31 -70 -5 -23 -22 -57 -37 -77
-33 -42 -111 -189 -111 -211 -1 -15 -19 -47 -81 -141 -20 -30 -39 -67 -43 -84
-10 -42 -72 -163 -105 -205 -28 -35 -60 -92 -79 -140 -37 -90 -64 -142 -96
-184 -20 -26 -36 -54 -36 -63 0 -23 -98 -213 -132 -256 -17 -22 -41 -67 -53
-100 -25 -68 -65 -144 -102 -194 -14 -17 -35 -60 -47 -95 -23 -61 -75 -157
-113 -208 -11 -14 -29 -56 -42 -95 -12 -38 -31 -79 -40 -90 -10 -11 -30 -41
-44 -67 -14 -26 -37 -64 -51 -85 -13 -21 -32 -61 -41 -89 -9 -29 -25 -61 -34
-71 -26 -27 -121 -214 -121 -236 0 -11 -13 -36 -29 -56 -35 -45 -111 -183
-111 -202 0 -18 -47 -108 -70 -134 -24 -27 -96 -164 -104 -197 -6 -26 -31 -71
-87 -154 -14 -22 -30 -50 -34 -64 -17 -54 -78 -175 -105 -209 -16 -20 -40 -67
-54 -104 -14 -38 -35 -81 -46 -97 -11 -15 -20 -32 -20 -38 0 -5 -14 -28 -30
-50 l-30 -42 -1069 0 c-752 0 -1072 3 -1076 11 -4 6 1 20 12 32 10 12 24 33
31 47 6 14 32 70 57 125 26 55 59 114 74 130 15 17 33 50 40 75 13 45 63 136
108 198 14 18 35 64 47 101 12 38 33 81 45 97 48 62 119 186 131 232 7 26 25
63 40 82 37 48 106 178 114 215 4 17 20 46 35 65 33 42 70 109 115 210 18 41
49 96 69 121 34 46 107 185 107 207 0 15 37 77 77 130 18 24 33 50 33 57 0 19
106 224 128 249 11 12 27 46 36 77 9 31 28 67 42 80 13 12 24 28 24 35 0 7 21
43 46 80 25 37 54 93 65 126 10 33 30 73 44 90 14 16 25 34 25 39 0 5 15 33
34 62 19 28 40 72 47 97 7 25 29 68 49 95 50 69 130 219 130 244 0 11 13 35
28 53 29 34 122 207 122 228 0 10 14 33 92 148 9 14 24 48 33 76 9 28 22 58
29 66 7 8 16 23 19 33 4 9 31 55 62 101 30 46 55 89 55 96 0 10 26 65 86 181
8 14 23 34 33 43 18 17 59 122 50 130 -3 3 -1629 15 -2171 16 -3 0 -14 25 -24
56 -10 31 -27 69 -40 83 -25 31 -98 170 -119 230 -8 24 -28 59 -43 79 -36 46
-102 171 -127 237 -10 28 -33 71 -51 96 -18 25 -38 56 -44 70 -5 13 -14 31
-19 39 -25 42 -73 171 -68 185 6 13 288 15 2696 15 1939 0 2692 -3 2697 -11z
m-5939 -6391 c18 -10 39 -18 47 -18 28 0 74 -49 81 -87 14 -67 17 -783 5 -827
-23 -77 -73 -123 -166 -151 -40 -12 -131 -15 -498 -15 -285 0 -473 4 -513 11
-62 11 -65 13 -123 81 -74 88 -73 82 -68 523 l4 330 26 51 c17 32 42 61 70 80
39 27 52 29 153 34 61 3 299 5 530 5 381 0 423 -2 452 -17z m6774 1 c11 -22 9
-202 -3 -214 -3 -4 -121 -6 -261 -6 -169 1 -258 -2 -262 -9 -3 -5 -6 -196 -5
-423 0 -322 -2 -416 -12 -430 -12 -16 -30 -17 -163 -15 l-150 3 -5 435 -5 435
-255 2 -255 1 -3 108 c-1 59 0 114 2 121 4 11 133 13 685 13 l680 0 12 -21z
m-9429 -16 c32 -35 138 -227 138 -252 0 -10 17 -42 38 -72 46 -64 70 -108 116
-211 19 -43 53 -103 75 -135 23 -31 41 -62 41 -70 0 -22 16 -15 29 14 7 15 25
43 40 62 34 44 121 204 121 223 0 19 38 89 65 118 13 14 35 50 48 80 14 30 37
82 52 115 15 33 43 81 62 108 l35 47 179 0 c196 0 202 -2 174 -56 -8 -16 -15
-34 -15 -41 0 -16 -55 -108 -91 -154 -16 -20 -29 -43 -29 -52 0 -26 -93 -193
-120 -217 -10 -8 -27 -47 -39 -86 -12 -40 -31 -80 -43 -90 -11 -11 -29 -37
-40 -59 -12 -22 -33 -56 -47 -75 -15 -19 -33 -54 -40 -77 -8 -23 -37 -77 -65
-120 l-51 -78 -212 -3 -211 -2 -30 48 c-17 26 -41 72 -54 102 -12 30 -45 91
-74 135 -67 103 -110 183 -118 217 -3 14 -21 46 -39 70 -35 46 -56 83 -107
191 -17 37 -48 89 -67 115 -20 26 -47 76 -60 111 -13 36 -30 73 -39 82 -31 34
-9 39 175 39 l177 0 26 -27z m3444 15 c5 -7 8 -195 9 -418 1 -223 5 -411 9
-418 5 -9 96 -12 362 -12 195 0 355 1 356 3 1 1 5 193 8 427 l5 425 155 0 155
0 3 -465 c2 -332 -1 -473 -9 -493 -6 -15 -34 -47 -61 -72 -83 -74 -90 -75
-610 -75 -545 0 -542 0 -620 85 -29 32 -57 65 -63 74 -11 17 -21 910 -11 937
7 19 300 21 312 2z m2604 -3 c7 -8 18 -15 25 -15 41 0 115 -109 115 -170 0
-16 -1 -31 -2 -32 -2 -2 -239 -5 -528 -8 l-525 -5 0 -300 0 -300 359 -3 c223
-1 363 1 370 8 8 6 13 63 14 180 1 94 4 175 7 180 4 6 68 10 150 10 121 0 144
-2 149 -16 3 -9 6 -114 6 -233 l0 -218 -42 -48 c-23 -26 -60 -61 -82 -77 l-39
-28 -527 0 c-594 0 -530 -8 -623 79 -69 64 -67 50 -67 471 0 354 1 383 19 418
23 45 45 66 102 96 l44 23 531 2 c461 1 533 -1 544 -14z m758 -529 c1 -390 -1
-543 -9 -552 -15 -19 -279 -20 -297 -2 -9 9 -12 145 -12 548 0 295 3 540 7
544 4 3 75 5 157 4 l151 -3 3 -539z m1050 -8 l2 -548 -22 -5 c-13 -3 -81 -4
-153 -3 l-130 3 -5 203 c-4 165 -8 205 -20 212 -9 6 -142 9 -330 9 l-315 -2 0
124 0 124 330 5 330 5 2 202 c1 112 5 208 8 213 4 7 61 10 153 8 l147 -3 3
-547z m-6843 -1074 c13 -13 15 -43 14 -185 0 -100 -5 -171 -11 -175 -17 -11
-72 -12 -85 -1 -10 7 -13 56 -13 183 0 154 2 174 18 183 25 15 58 13 77 -5z
m293 4 c34 -8 59 -24 93 -59 25 -25 61 -55 80 -64 19 -10 54 -35 78 -57 28
-24 53 -38 65 -36 19 3 21 10 22 93 1 50 2 97 3 106 1 20 27 32 53 23 17 -5
18 -17 16 -192 l-3 -187 -25 3 c-14 2 -32 9 -40 16 -8 7 -34 20 -58 29 -23 10
-61 36 -85 59 -61 62 -149 128 -169 128 -16 0 -18 -12 -18 -110 0 -128 0 -128
-87 -121 -10 1 -13 44 -13 181 0 160 2 180 18 189 21 13 15 13 70 -1z m995 -1
c22 -18 30 -52 14 -65 -7 -6 -49 -12 -92 -14 l-80 -3 0 -139 c-1 -128 -2 -140
-20 -146 -10 -4 -33 -4 -49 0 l-31 6 -3 142 -3 141 -87 3 -87 3 -3 30 c-6 52
11 56 229 55 135 -1 202 -5 212 -13z m548 -3 c6 -7 9 -25 7 -41 l-3 -28 -143
-3 -143 -3 3 -32 3 -32 115 -2 c63 -1 121 -2 128 -2 18 -1 31 -42 20 -63 -8
-16 -25 -18 -139 -18 l-130 0 3 -37 3 -38 140 0 c139 0 140 0 143 -23 7 -45
-5 -47 -197 -46 -100 1 -184 4 -187 7 -5 4 -8 280 -5 354 1 18 22 19 204 19
122 0 171 -3 178 -12z m593 -4 c43 -16 55 -38 56 -101 0 -48 -4 -59 -28 -82
-15 -15 -33 -27 -40 -27 -27 0 1 -69 40 -98 26 -19 23 -50 -5 -57 -38 -10 -69
9 -112 71 l-42 59 -69 6 c-41 4 -74 2 -81 -3 -8 -6 -13 -34 -13 -68 0 -64 -9
-74 -57 -61 l-28 7 0 174 c0 167 1 175 21 185 28 14 320 10 358 -5z m349 1
c25 -11 57 -35 71 -54 15 -19 54 -49 89 -67 34 -18 77 -48 95 -67 47 -50 57
-41 55 53 -3 137 9 164 62 144 l25 -10 -2 -177 -3 -178 -31 -3 c-19 -2 -36 3
-44 12 -7 9 -18 16 -24 16 -6 0 -38 20 -71 45 -33 25 -62 45 -65 45 -3 1 -30
23 -59 51 -53 48 -90 67 -109 55 -6 -3 -8 -42 -5 -90 7 -101 0 -132 -29 -139
-44 -12 -48 4 -48 189 0 154 2 174 18 183 23 14 24 14 75 -8z m829 8 c11 -6
28 -30 38 -53 11 -23 37 -62 60 -86 23 -25 56 -77 75 -116 18 -39 38 -74 44
-78 6 -4 11 -14 11 -22 0 -10 -12 -14 -41 -14 -34 0 -46 6 -77 38 -20 21 -45
56 -56 78 -62 131 -72 140 -112 104 -24 -23 -62 -94 -79 -147 -3 -13 -12 -23
-20 -23 -7 0 -20 -11 -29 -25 -13 -20 -25 -25 -61 -25 -52 0 -61 10 -40 47 28
50 110 162 128 175 9 7 28 40 42 73 23 56 39 71 93 84 2 1 12 -4 24 -10z m714
-14 c30 -45 11 -59 -87 -65 l-84 -5 -5 -140 -5 -140 -40 0 -40 0 -3 143 -3
142 -83 0 c-62 0 -87 4 -96 15 -16 19 -5 63 17 67 10 2 106 4 215 6 l197 3 17
-26z m243 9 c3 -3 7 -84 8 -180 1 -201 5 -194 -97 -185 -6 1 -10 68 -10 181 0
160 2 180 18 190 16 10 69 6 81 -6z m604 7 c27 -1 45 -9 62 -27 24 -26 25 -33
25 -159 0 -126 -1 -133 -25 -159 -26 -28 -30 -29 -283 -28 -96 1 -106 3 -138
27 l-34 26 0 127 c0 141 4 167 28 178 33 13 219 21 365 15z m447 -40 c19 -14
41 -34 48 -44 27 -36 57 -58 95 -69 23 -7 50 -26 66 -45 14 -18 29 -33 33 -33
4 0 9 50 10 111 3 126 12 142 65 123 l28 -9 0 -180 0 -180 -33 -3 c-19 -2 -41
3 -50 11 -10 8 -39 27 -66 43 -27 15 -77 53 -110 84 -34 31 -68 60 -76 63 -8
4 -22 12 -31 19 -9 6 -24 8 -34 4 -16 -6 -17 -18 -13 -111 5 -118 -2 -137 -47
-117 -24 11 -24 13 -27 164 -4 191 -2 206 26 210 30 5 75 -11 116 -41z m822 6
c10 -12 18 -28 18 -35 0 -21 30 -74 70 -122 46 -56 100 -145 100 -165 0 -11
-12 -15 -43 -15 -36 0 -48 6 -74 33 -17 17 -39 55 -49 82 -19 52 -77 125 -98
125 -22 0 -54 -44 -71 -96 -31 -97 -148 -183 -186 -138 -9 12 -7 19 9 37 11
12 30 43 41 70 11 26 40 69 64 95 24 26 52 65 61 87 28 65 32 69 57 76 34 8
81 -7 101 -34z m408 33 c12 -7 16 -40 20 -157 l5 -148 138 -3 c113 -2 139 -5
144 -18 14 -36 -15 -43 -196 -44 -134 -1 -176 1 -185 12 -7 9 -10 67 -8 181 3
162 4 168 25 177 29 12 39 12 57 0z"/>
<path d="M1853 10955 c-3 -9 1 -23 9 -33 8 -9 20 -37 27 -62 7 -24 25 -63 40
-85 42 -65 49 -76 86 -149 19 -39 35 -76 35 -84 0 -8 13 -31 28 -51 37 -47 92
-138 92 -152 0 -19 70 -151 97 -183 27 -32 103 -181 103 -201 0 -6 27 -52 60
-101 33 -49 60 -98 60 -108 0 -21 81 -166 116 -209 13 -15 30 -54 39 -86 9
-32 30 -73 46 -92 16 -19 29 -39 29 -45 0 -7 18 -36 40 -65 22 -29 49 -83 61
-119 12 -36 29 -74 39 -85 28 -32 111 -182 121 -219 5 -20 20 -48 33 -63 20
-24 38 -58 103 -185 7 -14 13 -31 13 -36 0 -6 25 -48 56 -94 30 -46 65 -103
76 -128 53 -118 84 -178 109 -206 14 -18 35 -54 45 -80 10 -27 31 -71 46 -99
16 -27 36 -66 44 -85 9 -19 26 -46 38 -60 13 -14 31 -50 40 -82 10 -31 25 -63
36 -73 10 -9 32 -44 49 -79 17 -34 39 -71 50 -80 11 -10 27 -42 35 -70 9 -28
29 -71 46 -96 16 -25 30 -50 30 -55 0 -6 13 -26 28 -45 16 -19 37 -60 46 -90
15 -47 44 -98 126 -220 24 -36 60 -120 60 -140 0 -23 42 -60 69 -60 17 0 27
12 47 55 13 31 24 60 24 65 0 5 14 29 30 53 17 25 30 48 30 52 0 4 15 30 34
58 19 29 40 72 47 97 7 25 29 68 50 95 56 76 128 210 129 240 0 11 13 36 29
56 31 38 71 111 124 229 19 41 41 81 49 88 9 7 28 39 43 70 14 31 47 99 73
150 l46 94 -36 71 c-20 40 -50 104 -65 142 -16 39 -46 92 -66 118 -20 27 -40
61 -43 75 -9 37 -101 212 -124 237 -11 11 -29 51 -40 87 -11 37 -25 70 -30 73
-6 4 -21 27 -34 53 -13 26 -38 64 -54 85 -17 21 -36 55 -42 75 -19 59 -77 172
-118 229 -12 17 -33 63 -45 102 -13 39 -33 81 -44 93 -24 26 -88 144 -109 201
-7 20 -26 56 -42 80 -16 23 -42 67 -57 97 -16 30 -34 62 -41 70 -7 8 -21 40
-31 70 -10 30 -31 71 -46 91 -15 20 -27 39 -27 43 0 3 -11 24 -25 46 -14 22
-34 64 -46 93 -31 82 -50 119 -71 141 -26 28 -105 174 -114 211 -9 36 -39 91
-69 125 -22 25 -55 90 -55 107 0 5 -9 19 -20 31 l-21 22 -770 0 c-683 0 -770
-2 -776 -15z"/>
<path d="M4605 10959 c-4 -5 4 -27 17 -47 37 -57 47 -78 69 -140 28 -79 38
-98 86 -171 24 -36 43 -70 43 -77 0 -6 9 -32 20 -58 16 -35 26 -46 43 -46 201
5 2435 -14 2441 -20 5 -6 -16 -48 -52 -103 -34 -51 -62 -98 -62 -105 0 -7 -4
-20 -9 -30 -5 -9 -21 -42 -36 -72 -15 -30 -35 -64 -45 -75 -22 -24 -80 -122
-80 -135 0 -22 -68 -150 -107 -202 -24 -31 -43 -65 -43 -77 0 -23 -90 -197
-118 -226 -10 -11 -29 -49 -41 -85 -12 -36 -31 -74 -40 -85 -18 -20 -35 -50
-64 -110 -8 -16 -21 -36 -30 -43 -9 -8 -26 -43 -37 -78 -12 -36 -33 -78 -46
-93 -13 -16 -24 -32 -24 -36 0 -4 -16 -34 -36 -67 -20 -33 -43 -80 -50 -105
-7 -24 -29 -66 -48 -91 -39 -53 -106 -183 -106 -205 0 -8 -7 -20 -15 -27 -8
-7 -15 -18 -15 -25 0 -6 -18 -37 -40 -68 -44 -61 -100 -167 -100 -189 0 -7
-27 -54 -60 -105 -33 -50 -60 -97 -60 -105 0 -22 -88 -188 -118 -222 -15 -17
-35 -51 -45 -76 -42 -101 -104 -219 -133 -252 -11 -13 -28 -48 -38 -78 -11
-30 -24 -62 -31 -70 -7 -8 -24 -37 -38 -65 -14 -27 -37 -67 -51 -87 -14 -21
-30 -57 -37 -80 -6 -23 -22 -56 -35 -72 -14 -16 -34 -47 -46 -70 -11 -22 -31
-54 -43 -71 -27 -35 -55 -100 -55 -125 0 -10 -10 -31 -23 -47 -47 -58 -127
-208 -127 -239 0 -12 -7 -27 -15 -34 -8 -7 -15 -18 -15 -25 0 -7 -7 -19 -16
-26 -22 -18 -59 -77 -69 -109 -16 -52 -77 -167 -110 -208 -19 -24 -35 -52 -35
-63 0 -19 17 -19 780 -19 l781 0 17 31 c9 18 30 47 45 65 15 18 34 55 43 83
16 55 66 147 120 221 18 25 42 75 55 110 12 36 28 72 35 80 7 9 22 36 33 61
11 25 29 53 40 63 11 10 30 48 42 85 12 36 27 73 34 81 30 35 125 218 125 239
0 10 8 29 19 42 41 52 130 212 146 261 10 29 27 67 40 83 46 62 115 193 115
217 0 14 19 52 43 84 39 54 97 162 97 181 0 15 58 121 85 157 34 44 95 163 95
185 0 9 27 57 59 107 33 50 63 104 67 120 10 39 74 162 107 206 15 19 35 62
46 95 10 33 35 85 55 116 20 31 36 59 36 62 0 3 16 27 35 52 19 25 35 51 35
57 0 18 89 197 115 232 27 36 55 99 55 124 0 10 11 31 24 47 13 15 37 54 54
85 17 32 39 69 51 83 11 15 29 55 41 90 12 36 25 67 30 70 4 3 20 28 35 57 15
29 33 60 40 68 20 24 42 72 50 110 4 19 17 49 29 65 40 53 95 153 111 202 9
26 36 76 59 112 58 89 126 218 126 242 0 10 16 40 35 65 20 25 47 71 62 103
78 169 93 200 103 206 5 3 10 15 10 26 0 19 -30 19 -2264 19 -1583 0 -2267 -3
-2271 -11z"/>
<path d="M2731 4626 c-8 -9 -11 -101 -9 -317 l3 -304 358 -3 357 -2 0 314 c0
277 -2 315 -16 320 -9 3 -165 6 -349 6 -269 0 -335 -3 -344 -14z"/>
<path d="M4124 3146 c-3 -8 -4 -23 -2 -33 3 -16 15 -18 123 -18 l120 0 0 30 0
30 -118 3 c-96 2 -118 0 -123 -12z"/>
<path d="M6868 3058 c-2 -57 0 -108 5 -114 4 -7 53 -11 132 -12 98 0 129 3
140 15 16 15 21 121 9 182 l-6 31 -139 0 -138 0 -3 -102z"/>
</g>
</svg>
