<?xml version="1.0" standalone="no"?>
<!DOCTYPE svg PUBLIC "-//W3C//DTD SVG 20010904//EN"
 "http://www.w3.org/TR/2001/REC-SVG-20010904/DTD/svg10.dtd">
<svg version="1.0" xmlns="http://www.w3.org/2000/svg"
 width="340.000000pt" height="245.000000pt" viewBox="0 0 340.000000 245.000000"
 preserveAspectRatio="xMidYMid meet">

<g transform="translate(0.000000,245.000000) scale(0.100000,-0.100000)"
fill="#000000" stroke="none">
<path d="M0 1225 l0 -1225 1700 0 1700 0 0 1225 0 1225 -1700 0 -1700 0 0
-1225z m3010 857 c0 -19 -58 -35 -120 -34 -36 0 -165 1 -288 2 -138 1 -220 5
-217 10 4 6 -13 11 -37 12 -24 2 115 5 307 8 193 3 351 6 353 8 1 1 2 -2 2 -6z
m-2372 -9 c-16 -2 -28 -9 -28 -14 0 -15 -83 -10 -104 6 -18 14 -11 15 70 14
49 -1 77 -4 62 -6z m209 1 c-3 -3 -12 -4 -19 -1 -8 3 -5 6 6 6 11 1 17 -2 13
-5z m262 -15 c-9 -17 -17 -20 -41 -15 -17 3 -72 7 -122 7 -50 1 -77 4 -61 7
l30 5 -30 7 c-17 5 25 8 103 9 132 1 133 1 121 -20z m696 11 l-40 -6 40 -6
c35 -5 33 -5 -15 -5 -30 0 -59 5 -63 11 -6 8 -10 7 -14 -1 -7 -20 -232 -17
-257 2 -18 13 3 15 185 14 112 -1 186 -5 164 -9z m82 4 c-3 -3 -12 -4 -19 -1
-8 3 -5 6 6 6 11 1 17 -2 13 -5z m-1040 -20 c-3 -3 -12 -4 -19 -1 -8 3 -5 6 6
6 11 1 17 -2 13 -5z m354 -99 c22 -44 33 -71 24 -61 -11 15 -15 16 -15 5 0 -8
5 -20 12 -27 7 -7 8 -12 3 -12 -6 0 -31 40 -57 88 -36 67 -45 91 -36 100 14
14 15 14 69 -93z m682 98 c-7 -2 -19 -2 -25 0 -7 3 -2 5 12 5 14 0 19 -2 13
-5z m464 1 c-3 -3 -12 -4 -19 -1 -8 3 -5 6 6 6 11 1 17 -2 13 -5z m662 -36
c-12 -24 -55 -106 -97 -183 -41 -77 -95 -178 -119 -225 -25 -47 -52 -90 -59
-96 -8 -6 -11 -14 -7 -17 9 -10 -18 -38 -30 -30 -6 4 -8 0 -4 -11 4 -10 -4
-38 -19 -68 -21 -41 -28 -48 -35 -36 -6 10 -4 26 6 44 12 24 15 25 15 9 0 -18
2 -17 13 5 7 14 9 28 5 31 -5 3 -2 18 5 32 8 15 17 24 20 20 6 -6 11 11 8 29
0 4 10 27 23 50 13 24 71 134 128 246 76 149 112 208 134 223 16 10 30 19 32
19 1 0 -7 -19 -19 -42z m-2503 13 c29 -23 77 -119 68 -134 -4 -7 -3 -9 1 -4 5
4 17 -5 27 -20 21 -32 24 -58 6 -47 -9 5 -9 2 1 -9 8 -11 9 -17 2 -17 -6 0
-18 14 -27 31 -13 26 -14 33 -2 41 10 7 9 8 -4 6 -12 -2 -29 21 -62 85 -47 88
-48 101 -10 68z m964 -18 c0 -2 -5 -1 -12 3 -8 5 -9 2 -5 -9 11 -28 -1 -19
-18 14 l-16 30 25 -17 c14 -9 26 -18 26 -21z m-776 -6 c7 -7 11 -18 8 -25 -2
-7 0 -12 5 -11 19 3 25 -2 15 -14 -6 -7 -7 -19 -3 -26 6 -9 10 -5 15 13 9 37
26 32 21 -6 -4 -25 -3 -27 3 -9 7 22 9 20 31 -27 13 -27 21 -56 18 -63 -3 -8
-6 -4 -6 9 -1 20 -3 21 -22 11 -17 -9 -19 -13 -8 -20 11 -6 11 -9 -1 -14 -19
-7 -18 -64 1 -76 11 -6 11 -11 2 -20 -9 -9 -16 -9 -28 1 -8 7 -18 10 -22 6 -3
-3 -1 -6 5 -6 6 0 9 -8 6 -17 -4 -13 -3 -14 3 -5 15 20 36 -11 28 -40 -5 -20
-4 -21 5 -5 6 9 8 26 5 37 -6 19 -5 19 24 2 17 -9 31 -20 31 -24 0 -12 -15 -9
-28 4 -9 9 -12 8 -12 -5 0 -9 8 -17 18 -17 9 0 24 -5 32 -11 12 -8 10 -9 -7
-4 -16 4 -23 2 -23 -7 -1 -8 -5 -7 -14 5 -9 12 -16 14 -21 7 -11 -17 -26 0
-19 22 4 15 2 19 -7 16 -17 -6 -72 90 -64 110 2 7 1 11 -4 7 -8 -4 -121 192
-121 210 0 11 122 5 134 -8z m112 -2 c12 -12 12 -15 2 -15 -9 -1 -7 -5 5 -14
9 -7 17 -17 17 -21 0 -4 -7 -1 -17 6 -13 11 -17 11 -20 2 -3 -7 -8 -13 -13
-13 -13 0 -18 38 -7 49 8 8 8 11 0 11 -6 0 -16 -7 -23 -15 -16 -20 -23 -19
-38 5 -11 19 -10 20 34 20 27 0 51 -6 60 -15z m1029 5 c-60 -5 -64 -6 -30 -10
39 -5 40 -6 41 -47 0 -23 -3 -40 -8 -37 -4 3 -8 11 -8 19 0 10 -9 12 -35 8
-23 -4 -35 -2 -35 6 0 6 3 11 8 12 4 0 19 3 35 5 17 3 27 0 27 -7 0 -7 3 -9 6
-6 4 4 1 13 -6 22 -14 17 -50 21 -50 5 0 -5 -11 -12 -25 -16 -14 -3 -25 -9
-25 -13 0 -9 51 -31 73 -31 11 0 21 -9 24 -20 5 -17 8 -18 22 -8 14 11 14 11
4 -3 -7 -9 -10 -20 -6 -25 4 -5 1 -3 -7 4 -18 15 -33 16 -28 0 3 -7 -5 -21
-16 -31 l-21 -18 25 4 c14 3 34 1 45 -3 13 -6 -4 -9 -52 -9 -63 -1 -73 1 -74
17 -1 16 -2 16 -6 0 -2 -10 -14 -18 -26 -19 -12 0 -32 -2 -45 -3 -19 -2 -30
13 -77 101 -30 57 -55 106 -55 109 0 2 89 3 198 2 128 -1 173 -4 127 -8z
m1097 -7 c-13 -26 -277 -522 -328 -618 -32 -59 -48 -79 -61 -77 -13 2 -15 1
-5 -6 19 -13 -69 -187 -105 -205 -17 -9 -22 -17 -14 -21 6 -4 11 -2 11 5 0 7
3 10 6 6 7 -7 -27 -67 -38 -67 -4 0 -5 -6 -2 -14 3 -8 1 -17 -5 -21 -6 -3 -11
2 -12 12 0 16 -1 16 -10 -2 -7 -16 -8 -13 -4 13 2 17 0 32 -5 32 -22 0 -8 29
18 38 15 6 21 11 14 11 -7 1 -10 6 -7 11 4 6 10 8 15 5 5 -3 12 0 16 6 4 8 3
9 -4 5 -7 -4 -12 -3 -12 3 0 5 4 11 9 13 5 2 11 19 15 38 3 19 3 28 -2 19 -6
-13 -11 -13 -32 -2 -24 12 -24 13 -3 13 15 0 21 5 17 14 -8 21 35 43 48 25 8
-11 9 -11 5 1 -2 8 -13 15 -24 15 -12 0 -25 3 -29 7 -4 5 -18 8 -31 8 -14 0
-21 4 -18 10 9 14 52 12 58 -2 2 -7 8 -10 12 -6 7 7 -18 50 -26 45 -2 -1 2 4
10 11 15 12 11 15 -24 14 -17 -1 -17 0 -2 4 32 10 17 19 -28 17 -25 0 -45 3
-45 9 0 5 8 7 19 3 21 -6 67 8 65 21 -1 5 2 8 7 6 5 -1 5 5 0 15 -5 10 -12 26
-15 36 -3 10 -9 16 -14 13 -4 -2 -14 0 -22 5 -11 6 -3 8 24 6 29 -3 41 -10 47
-25 11 -29 27 -28 41 4 9 20 9 30 -1 46 -11 17 -10 22 1 29 7 5 9 9 3 9 -5 0
-17 -5 -25 -10 -12 -7 -12 -12 -2 -22 14 -14 16 -48 2 -48 -5 0 -10 10 -10 21
0 16 -5 20 -19 16 -16 -4 -19 1 -18 29 1 26 4 31 14 22 8 -6 17 -8 20 -4 9 9
-17 26 -39 26 -10 0 -18 4 -18 9 0 5 11 9 25 9 14 0 28 -4 31 -9 9 -15 24 -10
18 6 -4 9 0 15 7 15 8 0 2 12 -14 26 -20 17 -35 23 -50 18 -19 -6 -20 -5 -5
10 9 9 32 16 50 17 40 1 29 5 -35 14 -61 8 -51 28 11 21 26 -3 36 -2 22 2 -14
4 -26 13 -28 20 -2 10 4 11 19 7 21 -7 21 -7 -1 15 -16 16 -19 25 -11 33 13
13 15 30 2 22 -5 -3 -12 -1 -16 5 -3 5 -16 8 -29 4 -24 -6 -55 19 -37 30 5 4
14 -2 20 -11 9 -16 12 -16 22 -3 8 11 12 12 16 3 2 -7 15 -13 27 -13 12 0 27
-5 34 -12 9 -9 12 -9 12 1 0 21 -33 41 -47 29 -9 -7 -14 -3 -19 16 -7 31 -12
32 -30 9 -12 -16 -13 -16 -14 -2 0 18 26 33 41 23 5 -3 9 -1 9 5 0 6 -9 15
-20 21 -13 7 -20 21 -20 40 0 32 6 36 30 20 9 -6 17 -5 23 3 7 9 10 9 14 0 2
-7 9 -13 15 -13 6 0 5 6 -3 16 -7 9 -21 13 -34 10 -14 -4 -31 2 -44 13 -22 19
-18 19 279 21 286 1 301 0 292 -17z m-605 -12 c-1 -16 -4 -17 -15 -9 -10 9
-11 13 0 19 17 11 17 12 15 -10z m-427 -11 c0 -5 -2 -10 -4 -10 -3 0 -8 5 -11
10 -3 6 -1 10 4 10 6 0 11 -4 11 -10z m440 -34 c0 -3 -4 -8 -10 -11 -5 -3 -10
-1 -10 4 0 6 5 11 10 11 6 0 10 -2 10 -4z m-463 -38 c-3 -8 -6 -5 -6 6 -1 11
2 17 5 13 3 -3 4 -12 1 -19z m-725 -24 c-9 -16 -10 -14 -9 8 1 15 6 23 11 18
4 -4 4 -16 -2 -26z m382 20 c3 -8 2 -12 -4 -9 -6 3 -10 10 -10 16 0 14 7 11
14 -7z m822 -11 c-8 -8 -36 5 -36 17 0 7 6 7 21 0 11 -7 18 -14 15 -17z m-783
-57 c21 -39 23 -47 12 -63 -12 -16 -15 -14 -34 27 -38 83 -20 111 22 36z
m-443 24 c0 -5 -5 -10 -11 -10 -5 0 -7 5 -4 10 3 6 8 10 11 10 2 0 4 -4 4 -10z
m745 0 c3 -5 1 -10 -4 -10 -6 0 -11 5 -11 10 0 6 2 10 4 10 3 0 8 -4 11 -10z
m-670 -51 c14 -22 31 -52 38 -67 6 -15 14 -29 17 -32 16 -16 41 -80 35 -91 -5
-7 -4 -10 3 -5 14 8 36 -30 26 -46 -4 -6 -3 -8 3 -5 6 4 64 -94 137 -231 l126
-237 -31 -60 c-38 -72 -241 -449 -244 -453 -2 -2 -24 38 -50 89 -26 50 -42 89
-36 85 6 -4 3 7 -7 23 -9 17 -20 31 -24 31 -5 0 -8 7 -8 15 0 8 -4 15 -10 15
-5 0 -10 5 -10 11 0 5 4 8 9 5 5 -3 12 1 15 10 5 13 9 14 21 4 8 -7 15 -8 15
-2 0 5 -7 15 -15 22 -8 7 -15 8 -15 2 0 -5 -9 -12 -20 -15 -11 -3 -18 -1 -14
4 3 5 -1 9 -8 9 -10 0 -10 2 1 9 8 5 10 14 6 21 -6 9 -4 11 4 6 7 -5 10 -14 7
-22 -3 -8 -1 -14 4 -14 6 0 10 5 10 10 0 6 7 10 15 10 12 0 13 5 7 18 -5 9 -6
28 -1 42 4 16 7 19 8 8 1 -10 6 -18 12 -18 6 0 9 10 7 23 -2 18 -9 22 -38 20
-24 -1 -30 1 -20 7 12 7 12 12 2 22 -18 18 -16 52 3 44 8 -3 15 -1 15 4 0 21
2 26 17 43 20 21 5 22 -25 1 -13 -9 -26 -13 -30 -9 -4 4 -2 10 5 12 6 2 22 24
33 49 18 36 20 47 10 59 -7 9 -20 13 -30 10 -12 -4 -16 0 -15 17 1 12 8 24 15
26 9 3 11 -1 7 -12 -4 -9 -2 -16 3 -16 16 0 16 35 0 47 -13 11 -12 12 9 13 20
0 21 2 11 15 -7 8 -24 16 -39 16 -22 2 -23 2 -4 6 14 3 20 9 16 19 -3 9 1 14
11 14 9 0 19 7 22 15 4 11 13 13 27 9 20 -6 21 -6 3 12 -18 17 -19 17 -36 -4
-29 -36 -80 -28 -57 9 16 26 30 24 22 -3 -6 -19 -2 -18 24 10 33 36 42 55 13
29 -16 -15 -19 -15 -30 3 -10 16 -10 20 2 20 15 0 26 30 26 73 0 21 -6 30 -20
34 -20 5 -38 48 -26 61 4 3 9 -4 13 -16 5 -22 23 -31 23 -11 0 5 5 7 10 4 6
-3 10 3 10 13 0 11 -7 22 -15 26 -8 3 -15 10 -15 16 0 6 5 8 10 5 13 -8 13 1
-2 28 -10 19 -9 20 4 9 14 -11 16 -9 14 11 -1 19 -6 22 -31 20 l-30 -3 26 13
c25 12 29 37 6 37 -7 0 -18 9 -25 20 -10 17 -10 20 3 20 8 0 26 -18 40 -41z
m46 18 c-10 -9 -11 -8 -5 6 3 10 9 15 12 12 3 -3 0 -11 -7 -18z m609 7 c0 -2
-7 -4 -15 -4 -8 0 -15 4 -15 10 0 5 7 7 15 4 8 -4 15 -8 15 -10z m-1217 -43
c3 -15 0 -19 -14 -18 -22 1 -24 8 -7 25 15 15 15 15 21 -7z m1672 9 c3 -5 1
-10 -4 -10 -6 0 -11 5 -11 10 0 6 2 10 4 10 3 0 8 -4 11 -10z m-1051 -16 c3
-8 2 -12 -4 -9 -6 3 -10 10 -10 16 0 14 7 11 14 -7z m1131 6 c-3 -5 -15 -10
-26 -10 -11 0 -17 5 -14 10 3 6 15 10 26 10 11 0 17 -4 14 -10z m-1585 -10
c-20 -13 -33 -13 -25 0 3 6 14 10 23 10 15 0 15 -2 2 -10z m929 -15 c13 -14
-20 -25 -75 -25 -64 0 -74 6 -52 28 10 10 115 8 127 -3z m491 11 c0 -3 -14
-13 -31 -21 -39 -21 -215 -19 -198 1 6 7 20 14 32 16 41 6 197 9 197 4z
m-1577 -41 c-2 -11 0 -14 3 -7 5 10 12 6 25 -15 10 -15 19 -32 19 -38 -1 -5
-5 -2 -11 9 -7 11 -14 14 -18 8 -3 -6 -15 6 -27 27 -18 33 -18 37 -3 37 11 0
15 -7 12 -21z m1538 -87 c-163 -306 -201 -373 -210 -371 -6 2 -10 -7 -8 -20 1
-14 -3 -21 -11 -19 -8 1 -12 -3 -9 -10 3 -11 -18 -68 -26 -68 -1 0 -2 11 -2
24 0 13 2 24 5 24 17 -1 23 3 14 10 -15 9 24 95 39 85 6 -3 7 -1 3 5 -4 7 40
103 98 214 97 187 124 226 164 237 2 1 -23 -50 -57 -111z m209 108 c0 -2 -3
-11 -6 -20 -9 -24 -33 -20 -27 4 4 16 33 30 33 16z m-50 -16 c0 -5 -4 -10 -10
-10 -5 0 -10 5 -10 10 0 6 5 10 10 10 6 0 10 -4 10 -10z m-70 -34 c0 -3 -4 -8
-10 -11 -5 -3 -10 -1 -10 4 0 6 5 11 10 11 6 0 10 -2 10 -4z m78 -37 c-2 -6
-7 -10 -11 -10 -4 1 -15 1 -24 1 -15 0 -16 2 -3 10 20 13 43 13 38 -1z m-68
-9 c8 -5 11 -10 5 -10 -5 0 -17 5 -25 10 -8 5 -10 10 -5 10 6 0 17 -5 25 -10z
m-1582 -13 c14 4 14 3 2 -5 -16 -12 -30 -7 -29 11 0 9 2 9 5 0 3 -7 13 -9 22
-6z m1720 -26 c6 -1 12 -5 12 -11 0 -14 -63 -6 -68 9 -2 7 5 10 20 7 12 -3 29
-5 36 -5z m-1595 -8 c-7 -2 -13 -13 -13 -23 0 -29 -18 -33 -30 -8 -11 22 -10
22 4 4 15 -19 16 -19 16 7 0 19 5 27 18 26 10 0 12 -3 5 -6z m1522 -23 c3 -5
-1 -10 -9 -10 -9 0 -16 5 -16 10 0 6 4 10 9 10 6 0 13 -4 16 -10z m-1501 -18
c3 -5 -1 -9 -9 -9 -8 0 -12 4 -9 9 3 4 7 8 9 8 2 0 6 -4 9 -8z m346 -12 c0 -5
-4 -10 -10 -10 -5 0 -10 5 -10 10 0 6 5 10 10 10 6 0 10 -4 10 -10z m-360 -54
c0 -6 -7 -1 -15 10 -8 10 -15 23 -15 28 0 6 7 1 15 -10 8 -10 15 -23 15 -28z
m1530 24 c5 8 12 11 16 8 3 -4 -1 -14 -10 -23 -14 -15 -18 -15 -31 -1 -20 19
-19 32 1 15 13 -10 17 -10 24 1z m-936 -16 c3 -8 2 -12 -4 -9 -6 3 -10 10 -10
16 0 14 7 11 14 -7z m-319 -24 c3 -5 1 -10 -4 -10 -6 0 -11 5 -11 10 0 6 2 10
4 10 3 0 8 -4 11 -10z m-251 -36 c3 -8 2 -12 -4 -9 -6 3 -10 10 -10 16 0 14 7
11 14 -7z m599 -11 c-5 -12 -3 -14 8 -8 12 8 12 6 0 -8 -13 -16 -14 -16 -27 0
-7 10 -13 23 -14 28 0 6 5 3 10 -5 8 -13 10 -12 10 3 0 10 4 16 10 12 5 -3 6
-13 3 -22z m-572 -30 c13 -16 12 -17 -3 -4 -10 7 -18 15 -18 17 0 8 8 3 21
-13z m620 -40 c14 -27 51 -97 83 -156 32 -60 56 -110 54 -112 -1 -1 -13 1 -24
5 -15 6 -44 53 -90 142 -37 73 -59 126 -49 118 17 -14 18 -14 6 8 -7 12 -16
20 -21 17 -6 -3 -7 1 -4 9 10 25 19 19 45 -31z m889 -123 c0 -5 -8 -10 -17
-10 -15 0 -16 2 -3 10 19 12 20 12 20 0z m-10 -25 c0 -1 -9 -5 -20 -8 -12 -3
-20 0 -20 8 0 8 8 11 20 8 11 -3 20 -7 20 -8z m-1203 -20 c6 -16 -22 -55 -40
-55 -6 0 -3 8 7 19 9 10 14 25 10 35 -3 9 -1 16 5 16 7 0 14 -7 18 -15z m1210
-31 c-3 -3 -12 -4 -19 -1 -8 3 -5 6 6 6 11 1 17 -2 13 -5z m-1325 -197 c86
-164 141 -266 195 -364 26 -48 33 -71 31 -102 -3 -41 -3 -40 -66 82 -34 67
-105 204 -157 305 -52 101 -90 180 -85 177 6 -3 10 -1 10 4 0 6 -5 11 -11 11
-5 0 -7 4 -4 10 3 5 -1 20 -9 32 -9 12 -16 27 -16 32 0 19 31 -33 112 -187z
m839 146 c-12 -20 -14 -14 -5 12 4 9 9 14 11 11 3 -2 0 -13 -6 -23z m-268 -60
c-4 -9 -35 -66 -69 -126 -42 -74 -63 -103 -68 -92 -3 9 -2 14 3 11 12 -8 32
41 24 61 -4 10 -2 14 5 9 6 -3 13 -2 17 4 3 5 1 10 -5 10 -5 0 6 32 25 70 26
51 41 70 55 70 14 0 18 -5 13 -17z m677 -3 c0 -5 -4 -10 -10 -10 -5 0 -10 5
-10 10 0 6 5 10 10 10 6 0 10 -4 10 -10z m-392 -25 c-3 -3 -9 2 -12 12 -6 14
-5 15 5 6 7 -7 10 -15 7 -18z m417 -46 c9 -17 15 -34 13 -39 -2 -5 -11 9 -20
30 -20 47 -15 53 7 9z m-432 -21 c-2 -5 -10 -4 -17 1 -7 6 -16 8 -20 4 -4 -4
-4 0 -1 9 6 14 10 15 25 6 10 -7 16 -16 13 -20z m-43 -43 c0 -8 -6 -14 -12
-12 -9 1 -12 -8 -10 -27 3 -29 -29 -72 -43 -58 -4 4 -4 -3 -1 -15 4 -13 2 -31
-4 -40 -9 -15 -10 -13 -5 12 4 23 3 26 -5 15 -30 -43 -30 -47 2 -45 17 1 36 9
42 17 10 14 13 14 26 0 13 -14 12 -15 -1 -10 -8 3 -24 -1 -34 -9 -17 -12 -18
-15 -5 -24 12 -9 12 -10 -4 -5 -14 5 -17 2 -12 -10 5 -12 2 -15 -11 -10 -14 6
-15 4 -7 -4 14 -14 54 3 54 23 0 7 9 13 20 13 24 0 24 2 2 -24 -10 -11 -30
-24 -45 -27 -26 -7 -26 -8 -10 -21 24 -18 34 -17 26 3 -4 11 -3 14 5 9 18 -11
15 -47 -3 -40 -8 4 -15 1 -15 -4 0 -6 -6 -12 -12 -15 -7 -2 -5 -3 6 -1 10 1
26 -4 34 -13 15 -14 14 -17 -7 -34 -19 -15 -21 -22 -11 -34 14 -17 5 -35 -18
-35 -15 1 -15 2 2 15 19 14 19 15 -6 15 -26 0 -53 22 -41 33 3 4 21 7 40 7 23
0 33 5 33 15 0 19 -39 20 -64 2 -9 -7 -19 -28 -21 -47 -3 -25 -2 -31 5 -20 8
13 10 13 10 -1 0 -22 36 -53 50 -44 7 4 16 1 21 -6 7 -11 9 -11 9 -1 0 20 47
65 59 58 6 -4 11 -13 11 -19 0 -7 -4 -6 -10 3 -8 13 -11 12 -24 -5 -9 -11 -16
-26 -16 -32 0 -12 -13 -17 -33 -14 -4 1 -15 -5 -23 -14 -14 -13 -13 -15 12
-15 15 0 24 -3 20 -7 -4 -4 -26 -6 -49 -6 l-42 2 43 -12 c24 -7 40 -16 36 -20
-5 -4 -1 -5 9 -1 9 3 17 14 17 23 0 9 4 21 8 28 4 6 7 -6 7 -28 l0 -39 -162 0
c-90 0 -163 2 -163 4 0 12 123 232 133 238 7 4 9 8 4 8 -11 0 32 80 44 80 6 0
8 -4 5 -8 -2 -4 0 -14 5 -22 7 -12 8 -11 6 5 -1 11 -6 26 -10 32 -5 8 16 56
53 123 58 104 80 130 80 95z m484 -10 c-6 -16 -24 -21 -24 -7 0 11 11 22 21
22 5 0 6 -7 3 -15z m16 -55 c-6 -11 -13 -20 -16 -20 -2 0 0 9 6 20 6 11 13 20
16 20 2 0 0 -9 -6 -20z m-55 -20 c-9 -16 -18 -30 -21 -30 -2 0 2 14 11 30 9
17 18 30 21 30 2 0 -2 -13 -11 -30z m68 -5 c-3 -9 -8 -14 -10 -11 -3 3 -2 9 2
15 9 16 15 13 8 -4z m-543 -29 c0 -3 -4 -8 -10 -11 -5 -3 -10 -1 -10 4 0 6 5
11 10 11 6 0 10 -2 10 -4z m504 -12 c3 -8 2 -12 -4 -9 -6 3 -10 1 -10 -6 0 -7
-2 -10 -5 -7 -5 5 4 38 10 38 2 0 6 -7 9 -16z m-650 -48 c-3 -9 -10 -16 -15
-16 -5 0 -4 9 3 20 14 22 21 20 12 -4z m581 14 c-3 -5 -12 -10 -18 -10 -7 0
-6 4 3 10 19 12 23 12 15 0z m48 -13 c3 -8 1 -20 -4 -28 -6 -10 -9 -7 -9 14 0
29 5 35 13 14z m-112 -240 c-81 -157 -97 -184 -105 -167 -9 21 4 50 104 235
15 28 40 74 56 103 22 42 30 49 35 35 4 -12 -25 -80 -90 -206z m-553 163 c2
-21 -4 -33 -18 -42 -11 -7 -20 -16 -20 -21 0 -4 4 -5 10 -2 6 4 7 -1 3 -11 -5
-15 -7 -15 -15 0 -11 20 -1 56 15 53 7 -1 13 7 13 18 4 46 9 48 12 5z m-258
-16 c-9 -27 -9 -28 5 -10 26 34 17 9 -30 -82 -42 -80 -45 -84 -45 -52 0 21 14
63 37 107 39 74 51 88 33 37z m514 -46 c-10 -16 -22 -7 -17 13 4 15 8 17 14 8
4 -7 5 -17 3 -21z m-304 -38 c16 0 -33 -80 -49 -81 -10 0 -11 -2 -4 -5 9 -4 8
-14 -4 -39 -9 -19 -20 -32 -25 -29 -4 3 -5 -2 -2 -10 6 -16 -53 -82 -63 -72
-3 3 25 60 61 127 36 67 67 127 67 133 1 6 3 3 6 -6 2 -10 8 -18 13 -18z m315
0 c3 -5 1 -10 -4 -10 -6 0 -11 5 -11 10 0 6 2 10 4 10 3 0 8 -4 11 -10z m13
-197 c-10 -2 -26 -2 -35 0 -10 3 -2 5 17 5 19 0 27 -2 18 -5z m-317 -42 c-11
-7 -11 -9 0 -14 8 -3 -22 -6 -66 -6 -59 0 -75 2 -62 10 9 5 22 7 29 3 7 -4 8
-3 4 4 -5 9 10 12 51 12 36 0 53 -4 44 -9z m206 3 c-3 -3 -12 -4 -19 -1 -8 3
-5 6 6 6 11 1 17 -2 13 -5z m257 -10 c4 -9 5 -19 2 -21 -2 -2 -58 -1 -125 3
-92 5 -121 10 -121 20 0 11 25 14 119 14 101 0 120 -2 125 -16z"/>
<path d="M2443 2063 c9 -2 23 -2 30 0 6 3 -1 5 -18 5 -16 0 -22 -2 -12 -5z"/>
<path d="M2647 1383 c-4 -3 -7 -11 -7 -17 0 -6 5 -5 12 2 6 6 9 14 7 17 -3 3
-9 2 -12 -2z"/>
<path d="M1707 1994 c3 -9 9 -11 12 -6 3 5 13 12 21 15 9 3 4 6 -12 6 -21 1
-26 -3 -21 -15z"/>
<path d="M1730 1906 c0 -7 7 -13 15 -13 8 0 15 4 15 8 0 4 -7 9 -15 13 -9 3
-15 0 -15 -8z"/>
<path d="M1787 1903 c-4 -3 -7 -11 -7 -17 0 -6 5 -5 12 2 6 6 9 14 7 17 -3 3
-9 2 -12 -2z"/>
<path d="M1730 1870 c0 -5 5 -10 11 -10 5 0 7 5 4 10 -3 6 -8 10 -11 10 -2 0
-4 -4 -4 -10z"/>
<path d="M1762 1854 c-14 -16 -5 -18 17 -5 7 5 9 11 5 14 -5 3 -15 -1 -22 -9z"/>
<path d="M2370 1949 c0 -6 9 -13 21 -16 12 -3 18 -11 15 -19 -3 -8 1 -14 10
-14 14 0 13 -2 -1 -16 -25 -25 -9 -29 17 -5 18 18 20 24 9 30 -19 12 -5 32 17
24 11 -4 14 -3 7 4 -15 16 -95 26 -95 12z"/>
<path d="M2481 1774 c0 -11 3 -14 6 -6 3 7 2 16 -1 19 -3 4 -6 -2 -5 -13z"/>
<path d="M2435 1771 c-3 -5 -1 -12 5 -16 5 -3 10 1 10 9 0 18 -6 21 -15 7z"/>
<path d="M2418 1653 c7 -3 16 -2 19 1 4 3 -2 6 -13 5 -11 0 -14 -3 -6 -6z"/>
<path d="M2480 1570 c0 -5 5 -10 11 -10 5 0 7 5 4 10 -3 6 -8 10 -11 10 -2 0
-4 -4 -4 -10z"/>
<path d="M2495 1500 c3 -5 8 -10 11 -10 2 0 4 5 4 10 0 6 -5 10 -11 10 -5 0
-7 -4 -4 -10z"/>
<path d="M2423 1394 c-15 -15 -17 -44 -4 -44 7 0 23 51 18 56 -1 1 -8 -4 -14
-12z"/>
<path d="M2440 1319 c0 -5 5 -7 10 -4 6 3 10 8 10 11 0 2 -4 4 -10 4 -5 0 -10
-5 -10 -11z"/>
<path d="M2497 1309 c4 -13 8 -18 11 -10 2 7 -1 18 -6 23 -8 8 -9 4 -5 -13z"/>
<path d="M2476 1248 c3 -5 10 -6 15 -3 13 9 11 12 -6 12 -8 0 -12 -4 -9 -9z"/>
<path d="M2455 1140 c-4 -6 -11 -8 -16 -5 -5 4 -9 -2 -9 -11 0 -16 1 -16 20 1
11 10 20 20 20 22 0 7 -9 3 -15 -7z"/>
<path d="M2360 1056 c0 -8 51 -13 56 -5 3 5 -9 9 -25 9 -17 0 -31 -2 -31 -4z"/>
<path d="M1240 1696 c0 -2 7 -9 15 -16 13 -11 14 -10 9 4 -5 14 -24 23 -24 12z"/>
<path d="M1240 1645 c0 -8 2 -15 4 -15 2 0 6 7 10 15 3 8 1 15 -4 15 -6 0 -10
-7 -10 -15z"/>
<path d="M1220 1590 c0 -5 5 -10 10 -10 6 0 10 5 10 10 0 6 -4 10 -10 10 -5 0
-10 -4 -10 -10z"/>
<path d="M1290 1581 c0 -6 4 -13 10 -16 6 -3 7 1 4 9 -7 18 -14 21 -14 7z"/>
<path d="M1230 1511 c-6 -12 -7 -21 -1 -21 10 0 24 30 17 37 -2 3 -9 -5 -16
-16z"/>
<path d="M1211 1166 c-10 -12 -8 -13 8 -9 12 3 21 9 21 14 0 14 -16 11 -29 -5z"/>
<path d="M1226 1095 c4 -8 13 -15 21 -15 13 0 13 3 3 15 -7 8 -16 15 -21 15
-5 0 -6 -7 -3 -15z"/>
<path d="M1270 1099 c0 -5 5 -7 10 -4 6 3 10 8 10 11 0 2 -4 4 -10 4 -5 0 -10
-5 -10 -11z"/>
<path d="M1196 851 c-8 -12 30 -44 46 -38 8 3 3 9 -14 17 -15 7 -25 17 -22 21
3 5 3 9 0 9 -3 0 -7 -4 -10 -9z"/>
<path d="M1257 753 c3 -7 6 -13 8 -13 2 0 5 6 8 13 3 8 -1 14 -8 14 -7 0 -11
-6 -8 -14z"/>
<path d="M1249 722 c6 -12 16 -24 22 -28 8 -4 8 -1 0 14 -6 12 -16 24 -22 28
-8 4 -8 1 0 -14z"/>
<path d="M1000 1060 c0 -5 5 -10 10 -10 6 0 10 5 10 10 0 6 -4 10 -10 10 -5 0
-10 -4 -10 -10z"/>
<path d="M1025 1010 c3 -5 8 -10 11 -10 2 0 4 5 4 10 0 6 -5 10 -11 10 -5 0
-7 -4 -4 -10z"/>
<path d="M1822 865 c-9 -20 -9 -23 3 -18 8 3 15 14 15 24 0 25 -5 24 -18 -6z"/>
<path d="M1759 723 c-13 -17 -13 -17 6 -3 11 8 22 16 24 17 2 2 0 3 -6 3 -6 0
-17 -8 -24 -17z"/>
<path d="M1752 649 c-8 -12 -9 -19 -1 -19 5 0 7 -5 3 -12 -4 -7 -3 -8 4 -4 6
4 9 13 5 21 -3 8 -1 15 5 15 6 0 12 -5 14 -12 3 -7 11 -9 24 -3 19 8 19 8 -1
13 -11 2 -25 8 -30 13 -7 5 -16 0 -23 -12z"/>
<path d="M1710 636 c0 -2 8 -10 18 -17 15 -13 16 -12 3 4 -13 16 -21 21 -21
13z"/>
<path d="M1730 590 c0 -5 5 -10 10 -10 6 0 10 5 10 10 0 6 -4 10 -10 10 -5 0
-10 -4 -10 -10z"/>
<path d="M1740 489 c0 -5 5 -7 10 -4 6 3 10 8 10 11 0 2 -4 4 -10 4 -5 0 -10
-5 -10 -11z"/>
<path d="M1778 453 c7 -3 16 -2 19 1 4 3 -2 6 -13 5 -11 0 -14 -3 -6 -6z"/>
<path d="M1760 389 c0 -5 9 -9 20 -9 11 0 20 2 20 4 0 2 -9 6 -20 9 -11 3 -20
1 -20 -4z"/>
<path d="M1708 383 c7 -3 16 -2 19 1 4 3 -2 6 -13 5 -11 0 -14 -3 -6 -6z"/>
<path d="M2280 689 c0 -5 5 -7 10 -4 6 3 10 8 10 11 0 2 -4 4 -10 4 -5 0 -10
-5 -10 -11z"/>
<path d="M2265 649 c-4 -6 -5 -12 -2 -15 2 -3 7 2 10 11 7 17 1 20 -8 4z"/>
<path d="M2240 609 c0 -5 5 -7 10 -4 6 3 10 8 10 11 0 2 -4 4 -10 4 -5 0 -10
-5 -10 -11z"/>
<path d="M1580 549 c0 -5 5 -7 10 -4 6 3 10 8 10 11 0 2 -4 4 -10 4 -5 0 -10
-5 -10 -11z"/>
<path d="M1568 323 c6 -2 18 -2 25 0 6 3 1 5 -13 5 -14 0 -19 -2 -12 -5z"/>
<path d="M1858 323 c6 -2 18 -2 25 0 6 3 1 5 -13 5 -14 0 -19 -2 -12 -5z"/>
</g>
</svg>
